<?xml version="1.0" standalone="no"?>
<!DOCTYPE svg PUBLIC "-//W3C//DTD SVG 20010904//EN"
 "http://www.w3.org/TR/2001/REC-SVG-20010904/DTD/svg10.dtd">
<svg version="1.0" xmlns="http://www.w3.org/2000/svg"
 width="887.000000pt" height="528.000000pt" viewBox="0 0 887.000000 528.000000"
 preserveAspectRatio="xMidYMid meet">
<metadata>
Created by potrace 1.15, written by Peter Selinger 2001-2017
</metadata>
<g transform="translate(0.000000,528.000000) scale(0.100000,-0.100000)"
fill="#000000" stroke="none">
<path id='north-america' d="M8065 5275 c-5 -2 -102 -5 -214 -7 -152 -2 -205 -6 -209 -15 -4 -15
-38 -17 -47 -3 -11 18 -42 11 -68 -16 -25 -24 -27 -25 -49 -10 -28 20 -77 21
-84 2 -9 -23 -33 -27 -60 -9 -20 13 -27 14 -34 4 -6 -11 -8 -11 -12 0 -11 31
-328 -1 -328 -33 0 -5 -4 -8 -8 -8 -5 0 -7 14 -4 30 l4 30 -59 0 c-34 0 -64 5
-72 13 -19 19 -659 17 -670 -2 -6 -9 -33 -15 -77 -17 -38 -2 -70 -8 -72 -14
-2 -6 -51 -10 -129 -10 l-125 0 4 -30 c3 -20 0 -30 -9 -30 -7 0 -13 7 -13 15
0 8 -9 15 -19 15 -11 0 -23 5 -26 10 -8 13 -52 13 -57 0 -2 -6 -21 -13 -43
-17 -22 -3 -43 -10 -46 -15 -3 -5 -25 -12 -50 -16 -40 -7 -44 -10 -47 -38 -2
-19 3 -36 12 -44 9 -7 16 -18 16 -25 0 -7 7 -18 15 -25 13 -11 13 -14 0 -27
-20 -20 -19 -34 4 -40 11 -3 22 -14 25 -26 6 -23 -4 -40 -11 -19 -11 29 -37
42 -86 44 -36 1 -42 2 -19 5 24 3 32 9 32 24 0 11 -7 22 -15 25 -8 4 -13 10
-10 14 3 5 2 15 -1 24 -8 22 -144 24 -144 2 0 -24 12 -46 24 -46 7 0 13 -7 13
-15 0 -11 -12 -15 -43 -15 -29 0 -44 -5 -48 -16 -10 -26 -7 -34 14 -34 11 0
20 -4 20 -10 0 -5 18 -10 40 -10 40 0 53 -13 25 -24 -8 -3 -15 -15 -15 -26 0
-15 7 -20 29 -20 17 0 31 -6 35 -16 5 -13 14 -15 38 -10 18 3 35 11 39 17 3 6
9 -1 11 -15 4 -20 1 -26 -13 -26 -9 0 -19 -4 -21 -8 -1 -5 -20 -12 -40 -15
-34 -5 -37 -4 -40 21 -2 21 -9 28 -30 30 -16 2 -28 -1 -28 -7 0 -17 -17 -13
-24 6 -4 10 -1 20 9 25 8 5 15 18 15 28 0 18 -7 20 -72 20 -55 1 -69 3 -55 11
9 5 17 21 17 34 0 25 -2 25 -83 25 -106 0 -127 -13 -127 -77 l0 -45 66 4 c42
3 69 9 74 18 5 8 10 12 12 10 2 -3 8 -14 14 -25 6 -11 26 -23 45 -26 42 -7 24
-15 -53 -24 -39 -4 -58 -11 -63 -23 -6 -15 -8 -15 -15 3 -6 18 -15 19 -121 16
-106 -3 -139 -10 -139 -32 0 -5 7 -9 15 -9 8 0 15 -4 15 -10 0 -15 -27 -12
-45 6 -8 9 -22 13 -30 10 -10 -4 -15 1 -15 14 0 23 -25 31 -85 27 -39 -2 -40
-3 -40 -37 l0 -35 52 1 c29 1 50 -2 47 -7 -3 -5 -1 -9 5 -9 5 0 12 -9 16 -19
3 -10 17 -22 30 -25 14 -4 25 -12 25 -19 0 -17 37 -39 45 -27 3 6 25 10 48 10
37 -1 40 -2 25 -14 -10 -7 -18 -18 -18 -25 0 -6 -7 -11 -15 -11 -9 0 -15 -9
-15 -25 0 -18 5 -25 20 -25 26 0 26 -16 -1 -23 -15 -4 -20 -12 -17 -29 2 -17
-2 -24 -19 -26 -13 -2 -23 1 -23 7 0 6 5 11 10 11 6 0 10 16 10 35 0 28 -4 35
-19 35 -11 0 -23 5 -27 11 -8 14 -56 2 -67 -17 -4 -8 -20 -14 -35 -14 -51 0
-74 -49 -24 -51 20 -1 22 -2 7 -6 -11 -3 -28 -13 -37 -23 -23 -25 -169 -26
-212 -1 -21 11 -30 13 -33 4 -3 -8 -10 -6 -22 6 -21 21 -34 51 -22 51 5 0 11
-7 15 -15 6 -16 75 -20 160 -9 40 6 46 10 46 30 0 22 4 24 45 24 38 0 45 3 45
19 0 13 -15 26 -45 41 -41 20 -59 40 -36 40 13 0 25 82 16 109 -10 32 -88 30
-118 -3 -17 -19 -24 -21 -34 -11 -8 8 -43 12 -112 11 -75 -1 -101 2 -101 12 0
6 -7 12 -15 12 -8 0 -15 8 -15 18 -1 42 -11 45 -189 49 -117 3 -171 1 -171 -6
0 -17 -37 -50 -65 -57 -14 -3 -25 -10 -25 -14 0 -5 -14 -11 -30 -15 -17 -4
-30 -10 -30 -15 0 -5 -13 -11 -30 -15 -34 -8 -38 -26 -14 -73 18 -36 50 -42
98 -17 15 8 43 15 61 15 18 0 42 9 55 20 13 11 29 20 37 20 7 0 13 -9 13 -20
0 -15 7 -20 28 -22 16 0 10 -3 -18 -7 -39 -5 -45 -9 -43 -29 2 -13 -4 -25 -12
-28 -20 -8 -19 -50 1 -58 9 -3 39 -6 67 -6 33 0 47 -3 39 -9 -8 -5 -12 -17
-10 -27 3 -17 12 -19 88 -17 46 2 86 7 89 11 8 12 62 22 55 11 -3 -5 -12 -9
-20 -9 -17 0 -19 -40 -1 -40 8 -1 7 -5 -4 -13 -9 -7 -18 -19 -22 -27 -4 -12
-6 -12 -6 2 -2 39 -28 48 -116 42 l-83 -7 1 34 2 34 -70 3 c-38 2 -72 8 -76
13 -3 6 -26 13 -50 16 -24 3 -47 11 -51 17 -9 13 -135 15 -160 2 -14 -6 -18
-4 -18 13 0 28 -33 28 -60 1 -24 -24 -40 -18 -40 16 0 19 -5 24 -25 24 -14 0
-33 -8 -44 -19 -27 -27 -78 -32 -84 -9 -5 17 -12 18 -59 12 -29 -4 -61 -11
-70 -15 -9 -5 -51 -12 -93 -16 -41 -3 -75 -10 -75 -14 0 -5 -11 -9 -25 -9 -14
0 -28 -7 -31 -15 -9 -22 -36 -19 -90 10 -26 14 -61 25 -79 25 -17 0 -40 7 -51
15 -23 17 -66 19 -82 3 -9 -9 -17 -9 -34 0 -28 14 -166 33 -231 32 -27 -1 -54
3 -60 8 -7 5 -32 12 -57 15 -24 3 -46 11 -48 16 -5 16 -74 13 -96 -4 -13 -10
-43 -15 -87 -15 -37 0 -80 -5 -96 -11 -15 -6 -51 -12 -79 -14 -28 -1 -66 -10
-84 -19 -18 -9 -44 -16 -57 -16 -14 0 -36 -9 -50 -20 -14 -11 -40 -20 -58 -20
-18 0 -38 -7 -45 -15 -8 -9 -29 -15 -55 -15 -72 0 -136 -49 -85 -65 20 -6 24
-15 21 -46 -1 -9 5 -19 13 -22 9 -4 13 -13 10 -22 -8 -20 -44 -20 -44 1 0 14
-10 16 -71 12 -39 -3 -74 -10 -78 -15 -3 -6 -28 -13 -55 -15 -27 -3 -51 -10
-55 -15 -3 -6 -19 -13 -35 -17 -23 -6 -27 -11 -23 -31 2 -14 0 -25 -4 -25 -5
0 -6 -7 -3 -15 5 -12 27 -15 108 -16 55 -1 92 -3 81 -6 -11 -2 -30 -6 -42 -9
-13 -2 -23 -10 -23 -17 0 -20 -61 -41 -123 -42 -36 0 -61 -5 -66 -13 -11 -18
-59 -42 -82 -42 -11 0 -27 -9 -36 -20 -10 -11 -28 -20 -40 -20 -16 0 -25 -8
-29 -27 -4 -15 -13 -34 -21 -41 -14 -14 -17 -50 -7 -76 7 -17 44 -22 44 -6 0
6 10 10 23 10 20 -1 20 -2 4 -11 -9 -5 -17 -17 -17 -24 0 -8 -5 -15 -11 -15
-12 0 -39 -25 -39 -36 0 -3 34 -4 75 -2 59 4 75 2 75 -9 0 -7 7 -13 16 -13 35
0 4 -25 -34 -28 -23 -2 -42 -7 -42 -13 0 -5 -7 -9 -15 -9 -9 0 -18 -6 -21 -14
-3 -8 -25 -17 -50 -21 -24 -3 -44 -10 -44 -15 0 -5 -16 -12 -35 -16 -19 -3
-35 -10 -35 -14 0 -4 -28 -10 -62 -13 -56 -5 -124 -29 -138 -47 -3 -4 -32 -10
-65 -13 -33 -3 -61 -11 -63 -17 -2 -5 -10 -10 -18 -10 -20 0 -18 -46 3 -54 11
-4 22 -1 29 8 6 9 20 16 30 16 10 0 32 7 49 16 19 10 31 11 33 5 5 -14 32 -14
32 -1 0 6 11 10 24 10 14 0 37 5 53 11 15 7 42 11 59 10 18 -1 35 2 38 8 4 5
31 13 61 16 30 4 55 11 55 16 0 5 7 9 15 9 8 0 15 4 15 10 0 11 64 30 104 30
18 0 38 10 52 25 13 14 27 25 31 25 4 0 19 6 33 13 15 8 42 16 62 20 33 5 36
3 42 -24 6 -32 21 -36 50 -14 11 8 28 15 38 15 10 0 18 5 18 11 0 16 26 39 44
39 20 0 21 39 1 46 -21 9 -19 44 3 44 9 0 27 3 40 6 18 5 22 2 22 -15 0 -18 6
-21 39 -21 22 0 46 6 53 14 8 7 36 16 63 20 28 5 55 12 62 18 6 5 37 12 67 15
54 6 56 7 56 34 0 34 13 37 43 8 36 -35 79 -48 152 -47 45 1 70 -3 73 -10 2
-7 12 -12 22 -12 32 0 80 -57 82 -98 2 -51 2 -52 -6 -99 -7 -41 -7 -43 18 -43
30 0 32 -13 11 -54 -21 -40 -19 -49 10 -44 14 3 25 1 25 -3 0 -5 9 -9 20 -9
14 0 21 9 26 37 6 31 8 34 15 18 15 -40 9 -66 -21 -92 -16 -13 -30 -29 -30
-35 0 -13 26 -38 39 -38 6 0 11 -9 11 -20 0 -11 7 -20 15 -20 8 0 15 -4 15
-10 0 -5 -7 -10 -15 -10 -8 0 -15 -7 -15 -15 0 -8 -4 -15 -10 -15 -5 0 -10
-11 -10 -25 0 -20 -5 -25 -24 -25 -13 0 -26 6 -28 12 -3 9 -10 8 -22 -5 -17
-16 -17 -20 -2 -52 10 -19 21 -35 26 -35 6 0 10 -7 10 -16 0 -9 9 -18 20 -21
11 -3 20 -11 20 -18 0 -7 6 -15 12 -17 9 -3 8 -9 -5 -22 -12 -13 -17 -34 -17
-76 0 -42 -4 -59 -15 -64 -8 -3 -15 -16 -15 -29 0 -13 -13 -39 -30 -57 -16
-18 -30 -37 -30 -41 0 -4 -13 -21 -30 -37 -16 -17 -30 -35 -30 -41 0 -6 -5
-11 -10 -11 -18 0 -51 -40 -57 -70 -3 -17 -9 -30 -13 -30 -4 0 -10 -18 -14
-40 -3 -22 -11 -40 -16 -40 -6 0 -10 -7 -10 -15 0 -9 -7 -18 -15 -21 -12 -5
-15 -25 -15 -89 0 -46 4 -85 9 -87 5 -1 10 -33 13 -70 3 -51 1 -68 -9 -68 -7
0 -13 -6 -13 -13 0 -18 31 -80 44 -89 5 -4 10 -19 11 -35 0 -24 4 -28 33 -31
20 -2 32 -9 32 -18 0 -8 6 -14 13 -14 7 0 26 -15 43 -32 28 -30 31 -41 37
-117 3 -46 10 -88 16 -94 6 -6 11 -27 11 -48 0 -21 8 -47 20 -62 11 -14 20
-30 20 -35 0 -6 6 -12 12 -14 23 -8 -18 -38 -51 -38 -24 0 -31 -4 -31 -20 0
-10 6 -23 14 -27 7 -4 18 -18 25 -30 7 -14 25 -25 49 -29 56 -10 72 -29 72
-86 0 -26 5 -48 10 -48 6 0 10 -11 10 -25 0 -16 6 -25 15 -25 8 0 15 -7 15
-15 0 -9 7 -18 15 -21 9 -4 15 -19 15 -35 0 -24 4 -29 24 -29 41 0 56 11 56
40 0 42 -19 87 -39 93 -18 4 -31 59 -31 128 0 16 -4 29 -9 29 -5 0 -13 14 -16
32 -4 17 -14 38 -21 46 -8 7 -14 31 -14 52 0 21 -4 42 -10 45 -5 3 -10 14 -10
24 0 10 -9 26 -20 36 -13 12 -20 30 -19 54 0 34 17 90 18 64 1 -6 14 -14 30
-18 27 -6 28 -9 34 -77 3 -39 11 -74 16 -77 6 -4 13 -26 17 -49 6 -37 11 -44
35 -49 22 -4 29 -11 29 -29 0 -13 8 -33 17 -44 12 -13 16 -33 14 -61 -2 -38 1
-44 73 -115 43 -42 76 -83 76 -94 0 -10 7 -23 16 -28 10 -5 18 -28 21 -55 3
-26 10 -47 16 -47 5 0 4 -7 -3 -15 -19 -23 -24 -129 -8 -146 8 -8 17 -22 21
-31 3 -10 13 -18 22 -18 8 0 15 -5 15 -11 0 -20 28 -38 69 -45 23 -4 41 -10
41 -15 0 -5 11 -9 24 -9 13 0 26 -7 30 -15 3 -8 17 -20 31 -25 14 -5 25 -14
25 -18 0 -5 18 -12 40 -16 22 -3 40 -11 40 -16 0 -6 6 -10 14 -10 7 0 19 -7
26 -15 7 -8 30 -18 52 -21 21 -4 41 -11 44 -15 14 -24 124 2 124 29 0 7 14 12
39 12 33 0 40 -4 45 -26 7 -28 15 -40 64 -91 17 -19 32 -39 32 -43 0 -11 27
-20 59 -20 16 0 50 -12 77 -26 31 -16 67 -27 96 -28 27 0 48 -4 48 -8 0 -5 8
-16 18 -27 66 -71 74 -84 79 -124 7 -64 22 -87 55 -87 16 0 31 -7 34 -15 4 -8
12 -15 20 -15 9 0 14 -12 14 -35 l0 -35 58 0 c49 0 60 -3 76 -25 10 -14 25
-25 32 -25 8 0 14 -5 14 -11 0 -6 16 -9 38 -7 34 3 37 6 40 36 2 17 7 32 11
32 5 0 11 9 14 20 12 48 77 7 77 -48 0 -29 3 -32 33 -32 37 0 67 28 67 63 0
28 -69 107 -93 107 -10 0 -17 5 -17 10 0 16 -86 12 -100 -5 -7 -8 -18 -15 -25
-15 -8 0 -15 -4 -17 -10 -1 -5 -19 -11 -38 -12 -30 -3 -35 0 -38 20 -2 13 -10
26 -18 29 -8 3 -14 11 -14 18 0 7 -9 15 -20 18 -14 3 -20 14 -20 31 0 14 -4
26 -10 26 -14 0 -13 47 1 52 6 2 14 37 17 78 2 41 9 78 14 81 6 4 13 27 15 53
5 42 4 46 -22 56 -15 6 -29 19 -32 30 -7 25 -40 31 -180 27 -62 -1 -113 -1
-113 0 0 2 9 12 20 23 11 11 20 31 20 44 0 14 4 28 10 31 5 3 10 16 10 28 0
12 9 28 20 35 16 9 20 23 20 62 0 37 4 50 14 50 8 0 18 10 22 22 4 13 13 28
21 33 9 7 13 24 11 45 -3 33 -6 35 -41 38 -38 3 -148 -20 -193 -40 -19 -9 -24
-19 -24 -48 0 -29 -5 -39 -20 -43 -14 -3 -20 -14 -20 -31 0 -21 -5 -26 -25
-26 -16 0 -25 -6 -25 -15 0 -8 -4 -15 -10 -15 -5 0 -10 5 -10 10 0 13 -27 13
-32 0 -1 -5 -25 -13 -53 -16 -27 -4 -53 -12 -57 -18 -6 -8 -11 -7 -16 2 -11
16 -59 42 -78 42 -10 0 -14 12 -14 38 0 25 -7 48 -20 62 -11 13 -20 31 -20 41
0 9 -5 19 -11 21 -14 5 -16 127 -2 136 6 4 12 31 15 61 4 35 11 57 22 63 9 5
16 14 16 19 0 6 7 17 16 26 11 11 15 32 13 77 -2 49 2 67 17 84 10 12 22 22
27 22 12 0 37 27 37 39 0 6 12 11 27 11 14 0 33 7 42 15 9 8 26 23 38 35 13
11 32 20 43 20 11 0 20 5 20 10 0 17 37 11 44 -6 5 -13 15 -15 46 -11 35 4 40
3 40 -15 0 -19 4 -20 60 -14 49 6 61 4 66 -8 15 -38 62 -4 50 35 -2 8 -7 26
-10 41 l-6 27 99 -3 c93 -3 101 -5 124 -30 24 -26 52 -34 59 -18 2 5 15 12 31
16 21 5 29 2 34 -11 4 -10 13 -24 21 -32 11 -11 13 -33 10 -88 -4 -51 -1 -78
8 -91 7 -9 14 -25 14 -35 0 -10 6 -20 14 -23 8 -3 17 -17 21 -32 13 -51 50
-69 80 -38 16 15 35 109 28 136 -3 10 0 21 6 24 14 9 15 83 1 88 -5 2 -12 46
-16 98 -6 89 -5 96 15 114 11 11 21 23 21 28 0 14 51 58 66 58 8 0 14 4 14 9
0 5 10 13 22 17 24 7 48 28 48 41 0 14 35 40 65 47 16 4 38 17 50 30 11 12 28
25 38 29 9 3 22 18 28 31 7 16 22 26 38 28 24 3 26 7 29 55 2 29 7 53 13 53 5
0 27 19 49 41 31 32 40 49 40 75 0 24 5 34 15 34 8 0 15 4 15 9 0 5 11 12 25
15 15 4 27 16 31 31 3 14 10 25 15 25 5 0 9 7 9 15 0 11 11 15 35 15 28 0 44
8 72 36 35 36 39 37 105 35 l68 -2 0 36 c0 22 -6 38 -15 41 -24 10 -17 35 20
70 26 26 43 34 70 34 22 0 38 6 41 15 4 8 17 15 29 15 13 0 30 7 39 15 8 8 24
15 35 15 11 0 24 8 30 17 5 10 13 15 17 10 4 -4 0 -15 -9 -25 -22 -24 -22 -78
-1 -86 26 -10 62 -7 76 7 7 7 21 16 31 20 9 3 17 11 17 17 0 5 18 13 40 16 22
4 40 10 40 15 0 5 23 11 50 15 28 4 50 10 50 14 0 4 9 10 20 13 11 3 20 12 20
21 0 12 10 16 40 16 36 0 40 3 40 24 0 13 -6 27 -12 29 -10 4 -10 6 0 6 7 1
12 15 12 36 0 28 -4 35 -20 35 -11 0 -20 -4 -20 -10 0 -5 -6 -10 -14 -10 -8 0
-21 -9 -29 -20 -13 -19 -16 -19 -30 -5 -17 17 -47 20 -47 5 0 -5 -5 -10 -11
-10 -14 0 -39 25 -39 39 0 6 -6 11 -14 11 -7 0 -16 11 -18 25 -3 15 -1 25 6
25 20 0 46 39 46 70 0 35 -26 45 -96 37 -24 -2 -44 -2 -44 1 0 16 42 31 88 32
44 0 52 -3 52 -19 0 -12 9 -21 25 -25 14 -4 25 -11 25 -16 0 -6 25 -10 55 -10
51 0 55 2 55 24 0 17 -8 27 -27 34 -22 8 -9 11 66 11 87 1 96 3 126 29 57 47
79 62 92 62 20 0 16 -10 -19 -46 -18 -18 -46 -49 -63 -68 -16 -20 -35 -36 -42
-36 -6 0 -14 -13 -18 -29 -4 -20 -13 -31 -28 -33 -17 -2 -23 -11 -25 -35 l-3
-33 99 0 100 0 6 -30 c7 -38 39 -40 71 -6 l23 25 6 -24 c11 -45 90 -46 102 -1
3 14 12 27 20 30 8 3 14 19 14 36 0 23 -4 30 -20 30 -18 0 -20 7 -20 66 l0 67
-55 -6 c-53 -5 -55 -5 -55 19 0 14 11 35 25 48 29 27 34 66 8 67 -14 0 -15 2
-3 6 27 10 47 38 53 75 8 54 -1 78 -34 85 -25 5 -29 10 -29 40 0 29 -4 34 -30
40 -16 3 -30 9 -30 13 0 5 -13 11 -29 15 -19 4 -31 14 -35 29 -4 16 -15 25
-36 29 -34 7 -41 27 -10 27 17 0 20 7 20 48 0 26 -7 56 -15 66 -8 11 -15 30
-15 42 0 13 -7 29 -15 38 -8 8 -15 26 -15 40 0 23 -4 26 -35 26 -22 0 -35 -5
-35 -13 0 -7 -8 -20 -17 -29 -10 -10 -27 -26 -37 -37 -11 -12 -34 -24 -53 -27
-18 -3 -33 -10 -33 -15 0 -15 -27 -10 -34 6 -3 8 -15 15 -26 15 -30 0 -25 35
10 80 45 57 37 80 -26 80 -14 0 -35 10 -47 23 -48 50 -116 74 -132 47 -3 -5
-31 -10 -61 -10 -30 0 -54 5 -54 10 0 16 -48 11 -70 -7 -13 -12 -20 -30 -20
-54 0 -24 -5 -39 -15 -43 -8 -3 -15 -18 -15 -33 0 -22 -9 -34 -40 -53 -22 -14
-40 -28 -40 -32 0 -5 -7 -8 -15 -8 -25 0 -18 -48 10 -66 14 -9 25 -23 25 -32
0 -21 -33 -91 -43 -92 -4 0 -20 -11 -35 -25 -15 -14 -36 -28 -47 -31 -11 -4
-23 -11 -26 -16 -3 -5 -25 -12 -48 -15 -22 -3 -41 -10 -41 -14 0 -5 -6 -9 -14
-9 -9 0 -15 -18 -19 -52 -4 -28 -11 -56 -17 -62 -5 -5 -10 -21 -10 -33 0 -34
-39 -83 -67 -83 -13 0 -23 -4 -23 -10 0 -23 -19 -8 -25 20 -10 44 2 70 31 70
19 0 24 5 24 25 0 21 -5 25 -30 25 -28 0 -30 2 -24 28 4 15 13 34 20 43 25 28
14 79 -16 79 -10 0 -21 -6 -24 -12 -5 -10 -7 -10 -12 0 -3 6 -23 12 -45 12
-22 0 -38 4 -35 9 10 16 -23 34 -52 28 -33 -7 -44 -1 -59 36 -10 22 -19 27
-47 27 -22 0 -36 6 -40 16 -5 12 -17 15 -54 12 l-48 -3 3 58 c4 57 4 57 -28
64 -25 5 -28 8 -15 15 9 5 16 13 16 18 0 16 42 60 57 60 7 0 13 4 13 10 0 5
11 12 24 16 14 3 27 12 30 20 3 8 12 14 21 14 8 0 15 7 15 15 0 8 7 15 15 15
8 0 15 4 15 10 0 5 18 13 40 16 34 6 40 10 40 30 0 15 6 24 15 24 8 0 15 -4
15 -10 0 -21 36 -9 60 20 16 20 34 30 52 30 14 0 28 4 30 8 2 5 27 12 56 15
47 5 52 4 52 -13 0 -16 7 -20 30 -20 20 0 30 -5 30 -15 0 -10 10 -15 34 -15
18 0 39 7 46 15 7 8 18 15 26 15 7 0 20 7 28 16 15 14 17 14 32 0 8 -9 22 -16
30 -16 8 0 14 -4 14 -10 0 -15 47 -12 53 3 4 10 6 10 6 0 2 -25 40 -14 47 14
8 32 -6 57 -35 61 -11 2 -21 10 -21 18 0 8 -12 20 -27 27 -48 20 -60 57 -19
57 14 0 28 5 31 10 3 6 24 10 45 10 49 0 80 12 114 43 26 24 35 57 16 57 -5 0
-10 7 -10 15 0 11 8 13 31 8 25 -5 31 -2 36 16 3 11 9 21 14 21 5 0 9 9 9 19
0 14 -8 21 -27 24 -23 3 -21 4 10 6 20 0 37 -3 37 -9 0 -5 7 -10 15 -10 8 0
15 -9 15 -20 0 -16 7 -20 34 -20 49 0 66 9 66 35 0 13 3 30 6 38 5 13 8 13 25
-4 21 -21 25 -39 9 -39 -5 0 -10 -9 -10 -20 0 -11 -8 -24 -17 -27 -10 -4 -31
-19 -46 -35 -25 -25 -27 -30 -13 -43 17 -18 102 -21 108 -3 2 6 26 12 54 12
47 1 49 2 49 29 -1 32 10 36 18 6 8 -32 -2 -47 -36 -55 -17 -3 -37 -13 -45
-20 -7 -8 -20 -14 -28 -14 -8 0 -17 -13 -20 -30 -6 -27 -10 -30 -44 -30 -21 0
-41 -6 -44 -12 -5 -10 -7 -10 -12 0 -6 14 -104 17 -104 3 0 -5 -13 -11 -30
-14 -28 -6 -30 -9 -30 -55 l0 -48 -35 4 c-32 4 -35 2 -35 -22 0 -22 4 -26 30
-26 17 0 33 7 39 18 6 9 11 11 11 5 0 -7 11 -13 25 -13 18 0 25 5 25 19 0 11
-6 21 -12 23 -7 3 7 8 32 12 24 4 48 12 52 19 6 9 8 9 8 0 0 -7 9 -13 20 -13
11 0 20 5 20 10 0 6 14 10 30 10 19 0 30 -5 30 -14 0 -8 5 -16 12 -18 7 -3 13
-18 14 -34 1 -16 2 -32 3 -36 0 -5 19 -8 41 -8 29 0 42 -5 50 -20 8 -15 21
-20 54 -20 31 0 46 -5 50 -16 5 -12 16 -15 41 -12 29 3 35 1 35 -14 0 -13 8
-18 25 -18 20 0 25 5 25 25 0 18 -5 25 -20 25 -15 0 -20 7 -20 25 0 27 17 34
26 10 6 -16 34 -21 34 -6 0 4 16 23 35 42 31 31 34 38 28 74 -7 50 -16 61 -53
69 -22 4 -30 11 -30 26 0 26 31 61 38 42 2 -6 10 -12 18 -12 8 0 22 -15 31
-34 13 -28 23 -35 52 -39 26 -3 41 1 54 15 11 11 26 17 37 13 11 -4 28 3 46
20 15 14 33 25 39 25 14 0 25 22 25 51 0 12 -7 19 -20 19 -11 0 -20 5 -20 10
0 6 -13 10 -30 10 -20 0 -30 5 -30 15 0 8 -4 15 -10 15 -5 0 -10 7 -10 15 0
11 -12 15 -42 16 -24 1 -54 5 -68 9 -24 8 -24 8 7 9 17 1 38 4 47 7 18 7 22
44 5 44 -5 0 -9 8 -8 18 2 9 0 29 -4 45 -6 23 -13 27 -42 27 -23 0 -41 7 -52
20 -10 11 -23 20 -30 20 -7 0 -13 5 -13 10 0 15 -58 12 -62 -2 -3 -8 -10 -3
-18 11 -7 13 -24 35 -38 48 -14 12 -20 23 -13 23 8 0 5 9 -6 25 -17 22 -24 24
-100 25 -93 0 -112 15 -29 22 31 3 61 11 70 21 19 19 21 57 4 58 -23 1 26 18
55 18 15 1 27 6 27 11 0 6 20 10 45 10 38 0 45 3 45 19 0 12 9 23 23 27 12 4
25 11 28 16 3 5 28 12 54 15 40 4 55 12 90 46 23 23 44 50 48 59 5 14 13 16
39 11 18 -3 35 -10 36 -15 6 -15 112 -9 128 7 10 9 34 15 64 15 27 0 52 5 55
10 3 6 15 10 26 10 15 0 20 -6 17 -22 -3 -21 -9 -23 -80 -26 -43 -2 -78 -7
-78 -11 0 -4 -37 -11 -82 -15 -44 -4 -85 -9 -90 -12 -13 -8 -9 -51 5 -57 9 -3
12 -16 9 -37 -5 -32 -4 -33 27 -28 25 4 31 1 31 -13 0 -26 68 -38 85 -15 15
20 31 21 39 1 7 -21 43 -19 55 3 6 9 11 11 11 5 0 -7 11 -13 24 -13 13 0 27 6
30 13 5 10 7 10 12 0 7 -16 41 -17 46 -1 3 8 9 8 19 2 8 -5 30 -14 49 -19 25
-7 36 -17 38 -33 2 -14 10 -22 23 -22 16 0 19 -7 19 -51 0 -56 -18 -129 -32
-129 -4 0 -8 -9 -8 -20 0 -11 5 -20 10 -20 6 0 10 -11 10 -24 0 -17 -7 -26
-25 -30 -21 -5 -25 -12 -25 -41 l0 -35 80 0 c64 0 80 3 80 15 0 8 5 15 10 15
6 0 10 -5 10 -11 0 -21 -26 -34 -68 -35 -31 0 -47 -5 -53 -17 -6 -9 -15 -17
-20 -17 -6 0 -24 -13 -40 -29 -30 -30 -39 -71 -16 -71 9 0 9 -2 0 -8 -6 -4
-14 -19 -18 -33 -5 -20 -1 -32 15 -47 17 -16 20 -26 15 -56 -9 -48 2 -106 20
-106 10 0 15 -10 15 -30 0 -16 4 -30 9 -30 5 0 15 -19 23 -42 l13 -43 75 -5
c70 -5 76 -7 88 -32 13 -28 36 -37 47 -18 3 6 16 8 29 4 16 -4 32 4 59 30 20
19 37 39 37 45 0 6 10 19 21 30 14 13 20 27 16 40 -4 15 0 21 12 21 9 0 22 9
29 20 7 11 19 20 28 20 26 0 44 26 50 74 6 40 10 46 30 46 12 0 25 4 28 9 3 4
28 11 56 15 42 6 50 10 51 29 1 17 2 18 6 5 6 -23 78 -25 87 -3 3 9 18 15 40
15 29 0 45 10 91 55 55 53 59 55 123 60 36 3 68 9 71 13 3 5 37 12 76 15 38 4
71 11 73 17 2 5 9 10 15 10 7 0 24 6 39 14 15 8 40 17 57 21 17 4 31 10 31 14
0 5 16 11 36 14 21 4 43 16 55 31 11 15 27 26 35 26 9 0 14 11 14 35 0 28 -5
38 -25 47 -14 6 -25 15 -25 19 0 4 -14 9 -32 11 -17 2 -33 9 -36 16 -3 10 5
12 34 6 22 -4 41 -11 42 -15 6 -14 42 -10 44 4 0 6 2 17 2 23 3 22 36 44 68
44 53 0 78 11 84 36 7 27 14 30 32 12 16 -16 42 7 42 38 0 17 -6 24 -19 24
-14 0 -17 6 -13 25 2 14 11 25 18 25 8 0 14 10 14 25 0 21 -5 25 -27 25 -26 1
-27 1 -8 12 11 6 24 17 28 25 4 7 15 13 22 13 9 0 15 10 15 26 0 36 19 51 73
59 26 4 47 11 47 16 0 5 18 12 40 15 22 4 40 10 40 15 0 5 11 9 25 9 18 0 25
5 25 19 0 15 -10 20 -47 26 -70 10 -270 -4 -284 -21 -15 -18 -36 -18 -36 1 0
8 4 15 9 15 4 0 8 13 8 28 l0 28 -102 12 c-95 11 -330 16 -353 7z m-2745 -545
c0 -5 -8 -10 -17 -10 -26 -1 -93 -65 -93 -88 0 -15 8 -22 28 -25 19 -3 14 -4
-15 -6 -35 -1 -43 -4 -43 -20 0 -27 16 -35 80 -41 53 -5 55 -6 58 -37 3 -28 0
-33 -25 -39 -15 -4 -39 -18 -53 -31 -13 -12 -32 -23 -40 -23 -9 0 -25 -7 -36
-15 -27 -20 -44 -18 -44 5 0 14 7 20 21 20 17 0 20 5 17 38 -3 35 -5 37 -35
36 -26 -2 -33 2 -33 17 0 10 -4 19 -9 19 -5 0 -7 9 -4 20 3 11 0 20 -6 20 -9
0 -9 5 -1 21 8 15 8 24 0 34 -9 10 -7 15 9 20 10 3 22 12 25 20 4 11 21 15 61
15 30 0 55 4 55 10 0 5 11 12 25 16 14 3 25 10 25 14 0 5 10 11 23 13 12 2 23
5 25 6 1 0 2 -3 2 -9z"/>
<path d="M5001 5066 c-32 -36 -23 -76 19 -76 16 0 32 5 35 10 12 20 52 11 63
-15 11 -24 42 -35 42 -16 0 5 14 12 31 16 27 6 30 10 27 38 -2 25 -8 33 -28
36 -14 1 -28 8 -31 13 -4 6 -35 12 -70 15 -59 4 -66 2 -88 -21z"/>
<path d="M4718 5061 c-10 -10 -18 -22 -18 -27 0 -6 -31 -10 -70 -10 -38 0 -72
-3 -76 -6 -3 -4 -3 -19 0 -34 6 -21 11 -25 31 -21 14 2 25 0 25 -5 0 -12 121
-1 134 12 6 6 19 10 29 10 13 0 17 5 13 15 -4 12 3 15 29 15 31 0 35 3 35 25
0 22 -4 25 -35 25 -19 0 -35 5 -35 10 0 16 -44 10 -62 -9z"/>
<path d="M4378 4993 c-21 -2 -38 -8 -38 -14 0 -5 -7 -9 -15 -9 -8 0 -15 5 -15
10 0 16 -60 12 -76 -5 -9 -8 -26 -15 -40 -15 -13 0 -24 -4 -24 -9 0 -5 -26
-13 -57 -17 -56 -9 -58 -10 -61 -41 -2 -24 1 -33 12 -33 8 0 16 6 19 13 4 10
7 10 18 0 15 -15 66 -17 71 -3 4 13 68 25 68 12 0 -5 -11 -13 -25 -16 -17 -4
-25 -13 -25 -27 0 -20 4 -21 54 -17 30 3 55 2 54 -1 -3 -32 2 -34 94 -27 51 4
98 12 105 18 7 5 61 11 120 12 72 1 108 6 111 14 2 8 8 8 19 -3 20 -21 55 -19
76 5 23 27 22 30 -13 30 -23 0 -30 5 -30 19 0 20 -18 31 -51 31 -10 0 -19 5
-19 10 0 6 -27 10 -60 10 l-60 0 0 -35 c0 -34 -12 -46 -25 -25 -3 6 -16 10
-28 10 -12 0 -31 7 -41 15 -11 8 -28 15 -37 15 -27 0 -34 21 -10 27 39 10 18
57 -22 51 -7 -1 -29 -3 -49 -5z"/>
<path d="M4028 1193 c-21 -2 -38 -8 -38 -13 0 -4 -11 -11 -24 -14 -15 -4 -26
-16 -31 -33 -3 -15 -12 -31 -18 -35 -8 -5 -7 -11 2 -22 17 -20 35 -20 55 -1
20 20 26 19 26 -5 0 -17 7 -20 45 -20 41 0 45 2 45 24 0 13 -7 26 -15 30 -18
6 -20 26 -3 26 6 0 19 -7 29 -16 10 -9 36 -18 59 -21 23 -3 44 -12 47 -19 3
-8 18 -14 35 -14 43 0 68 -17 68 -45 0 -16 6 -25 15 -25 8 0 15 -5 15 -11 0
-31 29 -39 139 -39 l111 0 0 29 c0 25 -6 31 -35 41 -20 7 -48 23 -62 36 -14
13 -31 24 -37 23 -22 -3 -34 1 -56 21 -13 11 -29 20 -35 20 -7 0 -15 7 -19 15
-3 9 -18 15 -36 15 -16 0 -30 5 -30 11 0 28 -31 40 -122 43 -51 2 -110 2 -130
-1z"/>
<path d="M4680 960 c0 -5 -16 -10 -35 -10 -29 0 -35 -4 -35 -21 0 -12 8 -23
20 -26 11 -3 20 -12 20 -19 0 -8 5 -14 10 -14 6 0 10 -4 10 -8 0 -5 -26 -7
-57 -5 -63 4 -89 -6 -80 -31 4 -11 19 -16 46 -16 22 0 43 -4 46 -10 3 -5 24
-10 45 -10 21 0 45 -7 54 -15 23 -24 53 -19 60 11 7 25 9 26 79 24 100 -4 97
-5 97 40 0 36 -3 40 -25 40 -14 0 -36 10 -51 23 -30 27 -55 35 -111 36 -23 1
-45 6 -48 11 -3 6 -15 10 -26 10 -10 0 -19 -4 -19 -10z"/>
</g>
</svg>
