
<svg version="1.0" xmlns="http://www.w3.org/2000/svg"
 width="2371.000000pt" height="1207.000000pt" viewBox="0 0 2371.000000 1207.000000"
 preserveAspectRatio="xMidYMid meet">
<g transform="translate(0.000000,1207.000000) scale(0.100000,-0.100000)"
fill="#000000" stroke="none">
<path d="M5445 12024 c-1085 -323 -2117 -830 -2964 -1456 l-145 -108 432 0
c288 0 432 3 432 10 0 6 11 15 25 20 24 9 35 30 15 30 -23 0 -7 19 24 30 19 6
40 17 46 25 7 8 27 17 46 21 19 3 34 9 34 13 0 3 15 15 34 25 28 15 37 16 54
5 16 -10 26 -9 55 4 19 9 40 17 47 17 14 0 40 25 40 39 0 6 16 11 35 11 32 0
35 3 35 28 l0 27 -97 -2 c-54 -1 -88 1 -75 4 12 2 22 11 22 19 0 8 -10 14 -22
15 -15 0 -17 2 -8 6 8 2 29 11 47 19 17 8 47 14 66 14 20 0 37 5 39 11 2 6 26
13 53 15 28 2 44 1 38 -2 -7 -3 -13 -13 -13 -21 0 -12 7 -14 31 -9 17 3 41 6
53 6 26 0 59 49 46 69 -4 8 -13 10 -20 6 -9 -5 -10 -2 -6 13 5 15 1 27 -13 39
-26 22 -12 33 44 33 22 0 49 7 59 15 11 8 30 15 43 15 21 0 69 24 83 41 3 3
25 9 49 12 24 3 47 11 51 17 4 6 39 12 80 14 46 1 75 7 78 14 2 8 32 12 87 12
61 0 86 4 95 15 16 19 49 19 74 0 11 -8 35 -15 54 -15 18 0 40 -6 48 -14 25
-26 83 -8 184 58 52 35 107 71 123 80 15 10 27 16 27 14 0 -3 -50 -38 -110
-78 -118 -78 -123 -90 -41 -90 24 0 65 -8 92 -17 38 -14 55 -15 77 -7 22 9 33
8 47 -2 10 -8 14 -14 9 -14 -6 0 -26 -13 -44 -30 -18 -16 -36 -30 -39 -30 -3
0 -21 -13 -38 -28 -18 -15 -47 -38 -65 -52 -17 -14 -52 -43 -77 -66 -25 -22
-62 -54 -80 -70 -75 -63 -231 -232 -231 -250 0 -14 35 -83 43 -84 12 0 8 25
-8 46 -21 28 -19 40 18 81 74 84 241 244 333 319 22 18 53 44 70 58 18 14 36
26 40 26 5 0 22 14 38 31 17 16 41 32 54 36 32 8 103 -3 112 -17 4 -7 29 -15
55 -18 39 -4 51 -2 62 13 9 14 29 20 75 22 48 2 58 1 41 -7 -26 -11 -27 -14
-13 -41 13 -23 36 -25 48 -2 7 11 28 18 68 21 32 3 64 11 72 18 7 8 24 14 37
14 13 0 26 4 29 9 3 4 21 11 41 14 19 3 43 14 53 23 16 17 17 16 22 -12 6 -35
37 -43 74 -19 23 15 25 15 36 -4 13 -25 33 -27 54 -6 17 18 87 20 104 3 9 -9
16 -8 29 4 10 8 56 48 103 87 85 73 101 91 81 91 -6 0 -11 -4 -11 -10 0 -5 -7
-10 -15 -10 -7 0 -18 -6 -22 -14 -4 -7 -33 -16 -63 -19 -30 -4 -56 -11 -58
-17 -2 -5 -12 -10 -23 -10 -14 0 -19 7 -19 25 0 14 -5 25 -11 25 -5 0 -7 5 -4
10 3 6 17 10 30 10 13 0 27 5 30 10 4 6 35 24 70 40 38 18 66 38 70 50 8 25
57 34 124 22 47 -9 55 -7 86 14 104 70 114 84 65 84 -48 0 -35 17 19 24 63 8
89 22 246 126 148 99 155 103 155 97 0 -2 -54 -40 -120 -83 -66 -44 -118 -83
-116 -89 4 -15 36 -18 60 -7 11 6 41 13 66 15 40 5 42 4 18 -6 -16 -6 -28 -14
-28 -19 0 -4 -12 -8 -28 -8 -15 0 -38 -7 -51 -16 -19 -14 -25 -14 -32 -3 -6
11 -11 11 -21 1 -6 -6 -26 -12 -44 -12 -17 0 -37 -7 -44 -15 -7 -8 -17 -15
-22 -15 -12 0 -137 -93 -138 -102 0 -5 14 -8 30 -8 17 0 30 5 30 10 0 16 29
11 51 -9 20 -19 20 -19 -33 -26 -29 -4 -57 -11 -63 -15 -5 -4 -29 -10 -53 -13
-48 -6 -139 -69 -252 -175 -65 -61 -65 -61 -34 -62 16 0 35 -5 42 -12 9 -9 59
-15 150 -18 7 0 10 -4 7 -10 -3 -5 -24 -10 -46 -10 -37 0 -39 -2 -39 -30 l0
-30 104 0 c59 0 108 4 111 10 11 18 34 10 65 -22 27 -29 32 -31 43 -18 23 29
61 50 93 50 37 0 66 26 40 36 -24 9 -19 24 9 24 14 0 25 -5 25 -11 0 -18 32
-38 60 -39 14 0 34 -7 44 -15 23 -18 77 -20 93 -4 8 8 17 8 31 0 34 -18 62
-13 96 17 27 23 39 28 71 24 30 -4 34 -7 21 -14 -9 -5 -16 -22 -16 -39 0 -26
3 -30 22 -27 13 2 24 11 27 23 4 25 19 35 52 35 14 0 29 4 35 10 5 5 21 11 34
13 16 3 26 11 27 23 1 10 5 29 8 40 5 17 1 24 -22 34 l-29 13 35 36 c44 44 77
62 114 63 35 1 39 -4 42 -52 2 -33 -1 -40 -16 -40 -14 0 -19 -7 -19 -25 0 -16
6 -25 15 -25 8 0 15 5 15 10 0 6 7 10 16 10 14 0 14 -1 0 -16 -9 -8 -16 -25
-16 -37 1 -17 16 -5 73 58 40 44 116 126 169 182 66 69 96 107 92 118 -3 8
-11 16 -18 16 -6 1 -15 2 -21 4 -5 1 -14 3 -20 4 -5 0 5 10 23 21 46 28 36 44
-28 48 -29 2 -63 10 -74 18 -19 13 -15 14 46 14 37 0 70 -4 73 -10 3 -5 26
-10 50 -10 24 0 50 -6 58 -14 12 -13 19 -10 52 24 32 33 35 39 19 43 -14 3
-12 5 7 6 14 0 34 10 44 21 18 20 17 20 -33 20 -59 0 -83 19 -25 21 55 1 87
13 91 32 3 15 -5 16 -77 10 -71 -5 -81 -4 -81 11 0 9 8 16 19 16 18 0 81 22
112 40 9 5 33 12 53 16 31 5 41 3 57 -15 11 -11 26 -21 33 -21 18 0 49 37 41
49 -3 7 3 11 16 11 12 0 63 31 113 69 50 37 140 100 199 140 l109 71 -539 0
c-447 -1 -542 -3 -563 -15 -14 -8 -29 -14 -35 -14 -5 0 1 6 15 14 39 22 -961
22 -1013 0 -45 -19 -63 -18 -22 0 47 22 -968 20 -1040 -1z m1657 -556 c-5 -19
-2 -20 41 -14 26 4 47 3 47 -2 0 -17 -108 -42 -186 -42 -43 -1 -97 -7 -119
-15 -22 -8 -62 -14 -90 -13 -36 1 -41 2 -17 5 23 3 32 9 32 23 0 15 -9 20 -47
22 -36 3 -43 6 -28 11 11 5 33 15 48 23 33 16 73 18 82 4 4 -6 10 -8 14 -6 4
3 21 -3 37 -13 41 -25 102 -35 120 -20 8 6 14 22 14 34 0 14 7 25 18 27 28 7
40 -2 34 -24z m274 -173 c-16 -12 -17 -17 -5 -31 11 -14 11 -18 -6 -30 -10 -8
-24 -14 -31 -14 -7 0 -14 -4 -16 -9 -1 -5 -24 -11 -50 -12 -40 -3 -51 1 -71
22 -13 14 -32 31 -43 37 -19 11 -19 11 2 12 11 0 25 -5 31 -11 17 -17 83 10
83 33 0 15 9 18 63 18 56 -1 60 -2 43 -15z m-777 -22 c-5 -29 3 -31 48 -15 35
13 47 14 50 5 5 -15 83 -18 83 -3 0 11 33 14 43 4 3 -3 1 -18 -4 -32 -13 -34
2 -49 36 -34 15 7 25 20 25 33 0 29 27 48 69 49 33 0 34 0 28 -37 -4 -20 -11
-39 -16 -42 -5 -4 -13 -19 -16 -34 -7 -26 0 -33 28 -28 4 0 7 -3 7 -8 0 -5 15
-13 33 -17 l32 -8 -45 -6 c-34 -4 -47 -10 -55 -27 -11 -26 -32 -33 -103 -33
-38 0 -54 4 -58 15 -8 19 -22 19 -104 1 -61 -14 -158 -29 -259 -43 -42 -5 -44
-4 -28 12 34 33 22 45 -48 45 -37 0 -65 4 -65 10 0 6 50 10 130 10 l130 0 0
25 0 25 -122 2 c-68 1 -101 3 -75 5 43 4 48 7 45 26 -2 14 -11 23 -26 25 -21
3 -20 6 15 22 21 10 61 24 88 30 28 6 66 15 85 20 48 11 50 11 49 3z"/>
<path d="M8525 11952 c-137 -91 -255 -179 -255 -189 0 -12 210 5 227 18 13 11
17 11 20 2 6 -17 43 -16 67 2 11 8 37 15 57 15 21 0 41 5 44 10 8 13 48 13 62
-1 8 -8 17 -7 33 3 18 10 24 10 27 1 6 -16 38 -17 63 -1 15 10 24 9 45 -2 21
-11 30 -12 45 -2 24 15 50 16 50 2 0 -5 13 -10 29 -10 17 0 33 5 36 10 8 13
105 13 105 1 0 -5 41 -13 90 -17 50 -3 90 -10 90 -15 0 -5 -47 -9 -105 -9 -85
0 -107 -3 -111 -15 -4 -8 -14 -15 -24 -15 -10 0 -34 -7 -53 -15 -20 -8 -56
-15 -80 -15 -26 0 -49 -6 -56 -14 -20 -24 -75 -28 -141 -9 l-62 17 -37 -41
c-21 -22 -41 -48 -44 -57 -4 -10 -18 -16 -36 -16 -16 0 -31 -6 -34 -12 -3 -10
-7 -10 -19 0 -11 8 -18 9 -23 3 -3 -6 -21 -18 -40 -27 -22 -10 -35 -23 -35
-35 0 -15 -7 -19 -34 -19 -19 0 -36 -4 -38 -8 -1 -5 -22 -12 -45 -16 -37 -5
-43 -4 -43 12 0 17 -8 18 -87 14 -49 -3 -91 -9 -94 -14 -4 -7 -9 -6 -13 1 -9
14 -73 15 -81 1 -3 -5 -20 -10 -38 -10 -28 0 -30 2 -16 15 8 8 37 18 64 21 31
5 55 14 63 26 7 10 22 18 32 18 10 0 26 8 36 18 15 14 33 17 121 14 115 -4
127 4 73 48 -16 14 -29 27 -30 30 0 3 33 5 72 5 68 0 73 1 76 23 l3 23 -143
-3 c-122 -3 -143 -5 -146 -19 -5 -25 30 -34 45 -12 12 15 13 13 7 -15 -6 -28
-4 -31 11 -25 11 4 16 3 12 -4 -4 -5 -40 -13 -81 -16 -41 -3 -85 -11 -99 -19
-37 -19 -187 -158 -187 -173 0 -16 217 -12 233 4 6 6 39 11 72 11 48 0 66 -4
79 -19 17 -19 17 -20 -11 -34 -47 -24 -104 -29 -137 -12 -34 18 -163 20 -201
3 -20 -9 -31 -8 -50 2 -25 13 -28 11 -90 -50 -35 -35 -63 -65 -62 -67 4 -3
126 36 149 48 10 5 35 9 55 8 l38 -1 -39 -12 c-21 -7 -52 -24 -68 -39 -24 -23
-29 -34 -26 -65 3 -33 6 -37 32 -40 27 -3 28 -2 23 26 -12 60 60 102 178 105
68 2 80 0 83 -15 2 -12 -5 -21 -21 -27 -14 -6 -28 -14 -31 -19 -9 -15 23 -23
45 -12 10 6 31 7 45 4 19 -5 31 -2 39 9 10 13 23 15 76 9 58 -6 65 -10 84 -39
18 -29 24 -32 55 -27 26 4 40 0 56 -15 12 -11 39 -23 60 -27 58 -11 82 -47 42
-64 l-23 -9 23 -7 c35 -10 26 -23 -20 -26 -44 -3 -58 -23 -28 -38 41 -21 68
-30 95 -32 22 -2 31 -9 35 -28 5 -20 12 -25 44 -27 22 -1 45 -4 53 -7 19 -8
16 -26 -4 -26 -10 0 -29 -12 -42 -25 -13 -14 -34 -25 -47 -25 -13 0 -28 -8
-33 -19 -7 -13 -18 -17 -36 -14 -14 3 -25 10 -25 15 0 19 -59 68 -88 74 -26 5
-32 2 -45 -22 -21 -40 -5 -83 34 -91 22 -4 29 -11 29 -28 0 -13 3 -30 6 -38 3
-10 -2 -18 -15 -22 -11 -3 -23 -15 -26 -25 -5 -17 -10 -18 -33 -7 -15 6 -38
19 -51 29 -41 31 -114 18 -76 -14 9 -7 21 -18 28 -24 7 -5 20 -13 30 -17 20
-8 23 -47 3 -47 -7 0 -19 7 -26 15 -8 9 -30 15 -56 15 -29 0 -44 4 -44 13 0 7
-15 19 -34 25 -27 10 -33 17 -29 32 4 14 0 20 -11 20 -9 0 -24 13 -33 28 -15
26 -19 28 -82 25 -36 -1 -82 -7 -101 -12 -51 -16 -60 -14 -60 14 0 18 5 25 20
25 11 0 20 5 20 10 0 14 66 12 91 -2 17 -10 23 -10 26 0 3 7 22 12 48 12 39 0
44 3 47 26 2 16 14 31 33 41 17 9 37 20 45 25 8 5 22 11 30 14 31 11 41 40 24
73 -9 17 -21 31 -29 31 -7 0 -18 7 -26 16 -12 15 -30 14 -76 -3 -16 -6 -16 -5
-4 10 7 9 20 17 27 17 8 0 14 5 14 10 0 6 -6 10 -13 10 -7 0 -28 16 -47 35
-35 37 -60 45 -60 21 0 -26 -85 -35 -212 -22 -64 6 -120 14 -124 19 -4 4 -29
7 -55 7 -26 0 -51 5 -54 10 -4 6 15 10 50 10 48 0 56 3 53 18 -2 10 -18 21
-42 27 l-39 9 -79 -84 c-43 -47 -78 -89 -78 -94 0 -5 8 -2 18 7 25 22 42 21
42 -2 0 -10 -9 -21 -20 -24 -15 -4 -20 -14 -20 -41 0 -34 2 -36 34 -36 18 0
39 6 45 14 6 7 25 16 41 19 16 4 38 15 49 26 10 10 28 22 39 25 11 4 25 20 31
36 9 27 14 30 53 30 27 -1 51 -8 66 -19 29 -25 29 -43 -1 -36 -31 8 -51 -17
-44 -53 7 -35 -1 -49 -36 -57 -15 -4 -27 -11 -27 -16 0 -13 -54 -11 -68 3 -9
9 -16 8 -29 -4 -14 -12 -31 -15 -70 -11 -49 5 -53 4 -53 -16 0 -16 -6 -21 -25
-21 -14 0 -25 -4 -25 -10 0 -5 -9 -10 -20 -10 -11 0 -20 -4 -20 -10 0 -13 -37
-50 -49 -50 -5 0 -17 -7 -25 -15 -9 -9 -39 -19 -68 -22 -38 -5 -58 -13 -75
-32 -27 -31 -163 -227 -163 -235 0 -3 152 -6 338 -6 l337 0 18 36 c9 19 17 46
17 59 0 13 5 27 12 31 7 5 63 8 124 9 102 1 114 -1 138 -22 14 -12 26 -27 26
-33 0 -5 20 -10 45 -10 50 0 54 -6 25 -40 -11 -13 -20 -24 -20 -26 0 -2 123
-3 273 -3 l272 0 24 55 c13 30 26 53 28 50 2 -2 -5 -22 -16 -45 -12 -22 -21
-45 -21 -51 0 -7 124 -10 380 -10 l380 0 0 23 c0 27 -70 72 -78 49 -5 -16 -77
-16 -89 1 -6 6 -13 24 -17 40 -3 15 -11 27 -16 27 -6 0 -10 13 -10 30 0 17 -7
33 -17 39 -15 8 -18 22 -16 81 2 55 -1 72 -12 76 -20 8 -19 44 0 44 17 0 21
36 4 42 -18 6 -2 43 24 56 12 7 34 22 49 34 25 19 30 20 53 8 22 -12 27 -11
45 10 11 13 20 31 20 41 0 21 -26 49 -46 49 -8 0 -14 5 -14 10 0 6 -10 11 -22
11 -19 1 -20 2 -4 6 10 3 23 0 29 -6 6 -6 21 -11 34 -11 17 0 23 6 23 23 0 25
-28 57 -48 57 -7 0 -12 5 -12 10 0 6 -7 10 -15 10 -8 0 -15 -4 -15 -9 0 -5
-13 -11 -30 -13 -16 -3 -30 -1 -30 4 0 4 4 8 9 8 5 0 12 13 16 30 4 16 11 32
16 35 5 4 9 32 9 63 0 51 -3 60 -30 84 -35 31 -32 33 -112 -92 -110 -171 -194
-320 -305 -535 -62 -121 -113 -216 -113 -212 0 4 42 92 94 195 103 204 221
409 327 571 38 58 69 108 69 112 0 7 -87 34 -107 32 -7 0 -13 3 -13 8 0 15
-34 10 -60 -8 -17 -12 -25 -13 -28 -5 -5 16 -39 15 -45 0 -3 -10 -9 -10 -26 0
-18 10 -25 10 -44 -3 -31 -21 -56 -19 -66 8 -8 20 -5 23 33 29 90 15 120 24
124 36 4 13 -45 17 -160 13 -43 -2 -68 1 -68 8 0 16 63 30 180 41 169 15 185
21 160 60 -14 22 11 28 121 29 65 1 106 6 125 16 16 8 39 15 52 15 12 0 22 4
22 9 0 13 37 22 105 26 33 1 78 6 99 10 31 6 41 4 48 -9 5 -10 22 -16 41 -16
18 0 38 -5 45 -12 14 -14 62 8 62 29 0 17 30 16 54 -2 25 -19 65 -19 72 0 8
20 40 28 64 15 15 -8 29 -6 62 10 26 12 45 17 51 11 6 -6 17 -5 28 2 15 9 24
9 40 -1 13 -9 25 -10 32 -4 10 8 241 21 389 22 33 0 40 5 58 38 12 20 18 28
14 17 -17 -51 -17 -52 18 -53 71 -4 132 -18 136 -31 3 -10 0 -12 -12 -8 -24
10 -66 -2 -66 -18 0 -20 35 -28 88 -21 l47 6 -32 -17 c-18 -9 -33 -23 -33 -31
0 -12 10 -14 51 -9 28 4 62 13 75 22 13 8 45 15 73 15 27 0 53 5 56 10 3 6 35
10 71 10 36 0 64 -4 64 -10 0 -5 -11 -10 -24 -10 -13 0 -29 -7 -37 -16 -7 -9
-21 -13 -35 -10 -13 3 -27 0 -33 -8 -7 -8 -30 -17 -52 -21 -43 -7 -58 -27 -40
-49 9 -11 4 -20 -23 -44 -19 -16 -40 -32 -48 -34 -20 -7 8 -38 36 -39 17 -1
17 -2 4 -6 -10 -2 -18 -10 -18 -17 0 -8 -3 -28 -6 -45 -6 -27 -4 -31 16 -31
39 0 12 -14 -28 -14 -26 -1 -37 -5 -37 -16 0 -24 -27 -39 -68 -40 -27 0 -45
-7 -63 -25 -14 -14 -23 -29 -20 -34 7 -11 -30 -2 -64 16 -29 15 -56 17 -64 4
-13 -21 41 -90 72 -91 6 0 21 -9 33 -21 17 -17 19 -25 11 -43 -6 -11 -11 -15
-11 -8 -1 7 -15 12 -34 12 -21 0 -36 7 -45 20 -8 13 -23 20 -42 20 -23 0 -30
-4 -30 -20 0 -12 -7 -20 -17 -20 -28 0 -93 -33 -93 -47 0 -17 30 -29 39 -16 5
9 191 28 191 19 0 -2 -30 -13 -67 -26 -38 -12 -96 -35 -131 -51 -35 -16 -74
-29 -87 -29 -13 0 -29 -8 -34 -17 -10 -17 -10 -17 -11 0 0 20 -3 20 -52 7 -31
-9 -42 -8 -63 6 -25 16 -26 16 -32 -4 -3 -12 -14 -24 -25 -27 -10 -4 -39 -27
-64 -51 -32 -31 -54 -44 -74 -44 -15 0 -33 -7 -40 -15 -17 -20 -50 -19 -65 2
-12 16 -14 16 -29 1 -9 -9 -16 -21 -16 -26 0 -11 -34 -22 -72 -22 -16 0 -28
-4 -28 -10 0 -5 -13 -10 -30 -10 -26 0 -30 -4 -30 -26 0 -17 -6 -28 -20 -31
-20 -5 -29 -33 -10 -33 18 0 11 -18 -10 -25 -11 -3 -27 -14 -37 -23 -9 -9 -23
-17 -32 -17 -11 0 -16 -9 -16 -30 0 -17 -6 -37 -12 -45 -74 -87 -77 -90 -110
-90 -18 0 -33 -4 -33 -10 0 -6 135 -10 384 -10 l384 0 11 38 10 37 -5 -37 -5
-38 909 0 c873 0 910 1 930 19 12 10 22 21 22 25 0 12 -24 6 -43 -11 -19 -17
-19 -17 -13 3 5 16 2 23 -14 27 -16 4 -19 12 -16 38 2 18 9 36 17 39 8 4 29
14 47 23 27 14 32 14 32 2 0 -8 5 -15 11 -15 6 0 9 8 7 18 -6 21 14 42 39 42
10 0 31 7 47 15 20 11 43 13 77 9 41 -6 49 -4 49 9 0 13 -7 15 -32 11 l-33 -5
35 30 c23 21 40 29 54 25 15 -5 18 -3 13 10 -5 12 0 16 18 16 25 0 55 23 55
44 0 6 9 18 20 26 11 8 20 19 20 25 0 11 99 75 116 75 5 0 17 9 26 20 10 11
30 22 45 26 15 3 33 12 38 18 10 12 65 39 100 50 12 3 46 7 78 7 31 1 57 6 57
12 0 5 13 7 30 4 16 -4 32 -2 35 3 3 6 15 10 26 10 11 0 22 7 25 15 4 8 13 15
22 15 12 0 13 -3 4 -12 -14 -14 -16 -38 -3 -38 5 0 16 7 25 15 9 9 25 13 38
10 37 -8 61 17 54 57 -6 32 -6 31 10 -7 22 -51 21 -50 37 -37 12 10 81 2 94
-12 6 -6 -20 -10 -44 -7 -14 2 -16 -9 -5 -25 8 -11 96 -13 108 -2 4 4 12 1 18
-7 8 -11 38 -17 96 -21 47 -4 117 -17 155 -29 39 -13 86 -25 105 -28 74 -11
101 -20 115 -41 14 -19 13 -23 -10 -46 -24 -24 -31 -25 -133 -24 -93 1 -203
17 -267 39 -20 7 -20 6 -1 -9 11 -9 28 -16 39 -16 10 0 15 -4 12 -10 -3 -6 4
-10 18 -10 25 0 46 -18 51 -42 8 -38 31 -68 53 -68 13 0 34 -7 48 -16 14 -9
39 -14 61 -12 46 4 60 28 16 28 -32 0 -90 38 -62 41 8 1 20 0 25 -1 11 -2 40
-6 128 -16 65 -8 73 2 25 31 -29 17 -30 19 -14 29 10 6 35 22 55 35 32 21 41
23 83 14 41 -8 47 -7 51 8 5 18 -21 49 -40 49 -6 0 -13 16 -15 35 -4 34 -3 35
29 35 17 0 44 -5 58 -12 l26 -12 -33 -14 -33 -14 35 -17 c48 -25 104 -23 108
4 3 14 27 31 75 54 40 18 87 40 105 49 25 12 35 13 44 4 9 -9 9 -12 -1 -12 -7
0 -9 -4 -6 -10 8 -13 68 0 78 17 4 7 22 13 40 13 67 1 86 51 32 86 -13 9 -21
21 -19 29 3 7 -27 63 -66 124 -59 91 -76 111 -96 111 -13 0 -24 -5 -24 -11 0
-6 -9 -24 -21 -40 -11 -16 -17 -34 -13 -40 3 -6 2 -14 -3 -18 -6 -3 -13 -18
-16 -32 -5 -20 -3 -28 11 -33 9 -3 24 -10 32 -16 8 -6 32 -17 54 -26 21 -8 36
-18 33 -21 -12 -11 -108 -3 -129 11 -12 9 -39 16 -60 16 -20 0 -40 5 -43 10
-3 6 -1 10 4 10 6 0 11 13 11 28 0 15 6 34 12 40 10 10 10 15 -1 21 -11 7 -11
9 0 13 12 4 12 7 0 21 -8 10 -9 17 -3 17 6 0 13 9 17 19 3 12 25 26 53 36 26
9 55 20 66 24 16 6 7 22 -71 126 -109 145 -221 275 -320 373 -41 39 -70 72
-65 72 26 0 280 -287 414 -467 64 -87 98 -113 98 -78 0 10 10 15 29 15 44 0
47 -18 7 -37 -20 -9 -36 -21 -36 -26 0 -18 141 -231 168 -256 15 -13 21 -20
15 -17 -25 14 -12 -15 22 -49 40 -41 46 -42 64 -13 12 19 11 23 -5 35 -10 7
-21 13 -26 13 -4 0 -8 5 -8 11 0 8 38 10 128 7 110 -4 132 -8 165 -27 48 -30
58 -21 20 17 -28 28 -28 29 -8 38 14 6 20 19 21 44 l0 35 74 -3 c79 -3 100
-12 100 -46 0 -12 15 -33 35 -49 19 -15 35 -35 35 -43 0 -20 67 -102 88 -109
26 -8 40 -46 27 -71 -24 -48 -32 -52 -83 -42 -68 14 -71 14 -74 3 -5 -18 65
-44 119 -45 35 0 63 7 87 21 33 19 36 25 36 64 0 30 -5 47 -16 53 -13 7 -9 11
19 16 46 9 108 -21 125 -59 9 -20 18 -26 39 -23 35 4 39 22 8 36 -14 6 -25 18
-25 26 0 8 -14 25 -32 37 -25 19 -47 23 -115 25 -78 3 -86 5 -106 30 -11 15
-22 36 -22 48 -1 11 -7 22 -13 24 -18 6 -62 43 -62 52 0 4 10 10 21 13 15 4
20 11 15 23 -5 14 -4 15 9 4 8 -7 15 -21 15 -31 0 -10 10 -25 23 -32 26 -16
176 -42 185 -32 14 13 -44 45 -83 45 -22 0 -47 4 -54 9 -10 6 1 8 30 4 42 -6
43 -5 29 12 -14 17 -13 18 10 11 112 -33 255 -46 255 -23 0 10 -102 46 -131
47 -12 0 -37 14 -55 31 l-32 30 49 -5 c65 -8 239 6 239 19 0 6 -25 22 -55 37
-40 19 -49 27 -32 27 13 1 37 8 53 17 30 15 30 16 12 36 -32 36 -235 213 -333
289 -115 91 -239 178 -341 242 l-76 47 -1056 0 -1057 0 15 -30 c9 -17 13 -30
11 -30 -3 0 -12 14 -21 30 l-16 30 -509 0 -510 0 -3 -557 -2 -558 -3 558 -2
557 -535 0 c-294 0 -535 -4 -535 -8 0 -5 -7 -17 -16 -28 -15 -18 -15 -18 -5 3
6 12 11 24 11 27 0 3 -229 6 -510 6 l-510 0 -78 -77 c-43 -43 -100 -102 -125
-132 -26 -29 -47 -49 -47 -44 0 5 52 64 116 131 l116 122 -539 0 -538 0 -130
-88z m4443 -64 c21 -46 56 -125 77 -177 40 -96 54 -112 80 -91 10 8 15 9 15 1
0 -6 22 -10 58 -10 31 0 68 -3 81 -8 22 -9 21 -11 -23 -23 -41 -11 -55 -11
-104 3 -31 9 -57 15 -58 14 -6 -6 30 -77 38 -77 5 0 16 -7 24 -15 14 -13 14
-15 0 -15 -23 0 -21 -12 24 -145 22 -66 39 -123 37 -128 -1 -4 -22 52 -46 125
-46 141 -55 160 -75 152 -8 -3 -12 5 -12 23 1 38 -26 41 -69 9 -18 -14 -40
-26 -48 -26 -8 0 -26 -9 -40 -20 -29 -23 -57 -26 -57 -6 0 8 -6 17 -12 19 -8
3 -5 6 6 6 11 1 16 6 13 15 -4 11 3 16 25 18 17 2 33 8 35 15 3 8 -6 10 -31 6
-22 -3 -42 -1 -50 6 -13 11 -12 15 2 32 17 19 89 28 77 10 -7 -13 56 -11 72 1
16 13 53 0 53 -18 0 -8 7 -14 15 -14 8 0 15 2 15 4 0 10 -105 256 -135 316
-19 38 -35 72 -35 75 0 17 14 -5 48 -77z m-2178 -939 c9 -16 8 -24 -5 -39 -12
-13 -13 -20 -5 -25 7 -4 15 -4 19 1 3 5 13 9 21 9 8 0 19 10 25 23 11 25 25
29 25 7 0 -19 9 -19 30 0 14 12 23 13 45 5 30 -11 81 -5 103 13 9 7 18 4 32
-11 11 -12 20 -26 20 -31 0 -6 8 -15 18 -20 15 -9 14 -13 -13 -37 -30 -26 -85
-58 -85 -50 0 3 -18 -1 -40 -9 -22 -8 -40 -11 -40 -8 0 4 -5 2 -12 -5 -7 -7
-22 -12 -34 -12 -13 0 -26 -4 -29 -10 -10 -16 -92 -12 -109 5 -8 8 -25 15 -38
16 -13 0 -32 4 -43 9 -19 8 -19 9 2 9 27 1 34 11 26 39 -4 17 -13 22 -41 22
-19 0 -33 3 -29 6 3 3 27 6 53 6 28 0 42 3 34 8 -9 6 -7 10 9 15 44 14 21 26
-36 19 -33 -3 -54 -3 -50 2 5 5 14 9 20 10 7 0 21 2 31 2 11 1 17 5 13 8 -3 3
-1 12 6 19 9 10 14 9 23 -3 13 -18 35 -7 27 13 -8 23 15 18 27 -6z m-3167
-143 c12 -13 32 -26 44 -30 12 -4 23 -17 25 -29 2 -16 11 -23 31 -25 15 -2 27
-9 27 -18 0 -21 -94 -12 -120 11 -19 17 -22 17 -82 -14 -55 -27 -64 -29 -74
-16 -6 8 -22 15 -35 16 -23 1 -23 1 4 11 16 5 49 30 75 54 25 24 52 44 59 44
7 0 13 5 13 10 0 16 9 12 33 -14z"/>
<path d="M15044 12027 c262 -169 464 -324 667 -514 76 -70 77 -71 127 -69 28
1 58 8 66 15 11 9 30 11 58 7 84 -13 175 -7 187 11 3 6 17 10 31 9 22 -1 25 2
22 32 l-2 33 67 -3 c45 -1 72 -7 79 -17 6 -8 30 -14 57 -15 39 -1 47 -4 47
-20 0 -16 5 -18 38 -12 111 18 167 18 226 -3 33 -12 66 -21 75 -21 9 0 24 -12
34 -26 l18 -25 -53 -25 c-111 -53 -129 -67 -107 -89 13 -13 20 -14 55 -2 21 8
45 12 52 10 6 -3 12 2 12 10 0 9 -6 18 -12 20 -7 3 4 6 24 6 20 1 40 -3 43 -9
8 -14 52 -13 57 1 3 9 11 8 28 -2 18 -9 55 -12 126 -10 87 2 107 0 143 -19 24
-12 55 -20 69 -18 24 3 9 16 -118 112 -260 195 -508 354 -815 521 -88 48 -151
84 -140 81 31 -11 305 -160 428 -234 164 -98 371 -238 546 -370 l154 -116 61
-1 c33 -1 74 -6 89 -10 25 -7 28 -5 25 11 -2 11 -13 20 -28 22 -29 4 -52 22
-29 22 8 0 38 -6 66 -13 28 -8 57 -10 65 -6 7 4 38 4 68 0 42 -6 50 -10 35
-16 -37 -15 -46 -26 -34 -41 7 -8 22 -11 39 -7 19 3 46 -3 84 -21 30 -14 61
-26 69 -26 8 0 20 -7 27 -15 15 -17 115 -21 125 -5 4 6 1 18 -7 27 -12 15 -11
15 12 2 29 -15 320 -20 320 -5 0 13 -41 46 -59 47 -14 0 -14 1 -1 6 8 3 18 10
21 16 5 6 33 6 83 -2 42 -6 108 -11 146 -11 68 0 70 -1 70 -25 0 -31 29 -34
37 -4 5 18 11 19 46 14 56 -10 44 3 -80 80 -66 42 -121 69 -145 73 -21 2 -41
9 -44 13 -3 5 -27 9 -54 9 -27 0 -51 4 -54 9 -4 5 2 7 12 4 10 -2 34 0 53 4
l34 9 -110 62 c-60 34 -176 97 -257 139 -81 42 -146 79 -144 81 6 5 214 -104
420 -221 88 -50 171 -90 186 -91 18 -1 26 -6 23 -16 -2 -10 29 -34 88 -70 50
-30 121 -74 157 -97 38 -25 78 -43 95 -43 15 0 43 -7 63 -15 27 -11 62 -13
162 -8 167 8 289 -16 347 -67 25 -22 80 -30 120 -18 19 5 69 4 134 -3 99 -11
104 -10 132 10 19 14 27 16 23 7 -7 -17 42 -45 101 -58 83 -19 93 -20 100 -8
11 19 -25 50 -59 50 -17 0 -38 5 -46 11 -11 8 0 9 40 3 30 -3 94 -6 142 -5 59
2 102 -3 135 -14 33 -12 64 -15 100 -11 50 6 55 4 150 -56 147 -92 376 -247
478 -322 l90 -67 -60 7 c-33 4 -65 11 -72 16 -13 10 -33 3 -33 -12 0 -15 -50
-60 -66 -60 -8 0 -17 -8 -20 -17 -3 -10 -11 -28 -17 -41 -7 -15 -7 -26 -1 -32
7 -7 105 -9 265 -8 l254 3 -80 61 c-742 564 -1806 1121 -2747 1438 l-224 76
-1070 -1 c-1058 0 -1069 0 -1034 -19 47 -25 30 -25 -20 0 -38 19 -58 20 -572
19 -416 0 -529 -3 -514 -12z m2909 -572 c46 -19 61 -19 54 0 -5 11 -1 12 16 6
26 -10 154 -26 180 -23 9 1 17 -5 17 -13 0 -16 -19 -19 -83 -15 -21 1 -67 -4
-103 -11 -57 -11 -65 -11 -82 4 -10 9 -30 17 -44 17 -16 0 -32 9 -42 25 -16
25 -16 25 18 25 18 0 50 -7 69 -15z"/>
<path d="M12960 10838 c0 -4 -7 -8 -15 -8 -20 0 -39 -48 -25 -65 13 -16 -16
-43 -58 -51 -17 -4 -37 -13 -43 -20 -6 -8 -20 -14 -30 -14 -11 0 -19 -4 -19
-10 0 -5 -7 -10 -16 -10 -8 0 -12 -4 -9 -10 3 -5 -1 -10 -10 -10 -12 0 -15 -6
-10 -20 4 -13 1 -22 -7 -25 -9 -4 -12 -18 -10 -44 3 -33 8 -40 32 -44 15 -4
36 -14 46 -24 16 -16 44 -18 312 -21 196 -2 299 1 306 8 7 7 5 10 -7 10 -10 0
-20 7 -24 15 -4 13 -17 14 -67 9 -33 -3 -67 -6 -73 -7 -7 0 -13 -3 -13 -7 0
-3 -8 -7 -17 -8 -128 -14 -143 -14 -143 -2 0 7 -7 10 -15 6 -8 -3 -15 -1 -15
4 0 6 -14 10 -30 10 -24 0 -33 6 -40 26 -7 18 -7 31 0 39 8 10 8 15 0 20 -6 4
-15 18 -20 31 -11 29 6 65 27 57 7 -3 13 0 13 5 0 6 15 18 34 27 19 9 46 29
60 46 14 16 35 29 46 29 11 0 20 4 20 9 0 23 -14 41 -31 41 -10 0 -19 5 -19
10 0 6 -27 9 -65 8 -36 -1 -65 -5 -65 -10z"/>
<path d="M7160 10694 c0 -7 8 -14 18 -14 14 0 15 -2 2 -9 -8 -6 -26 -7 -40 -4
-20 3 -34 -3 -59 -26 -17 -16 -42 -33 -54 -37 -22 -7 -99 -63 -105 -76 -2 -5
-10 -8 -18 -8 -8 0 -17 -7 -20 -15 -4 -8 -12 -15 -19 -15 -7 0 -18 -7 -25 -15
-11 -13 2 -15 111 -15 l124 0 65 98 c36 53 73 108 82 122 l17 26 -39 1 c-29 2
-40 -2 -40 -13z"/>
<path d="M20227 10623 c-23 -6 -17 -25 11 -38 21 -10 31 -35 13 -35 -5 0 -12
-11 -15 -25 -7 -29 -18 -32 -36 -10 -7 8 -21 15 -32 15 -10 0 -21 6 -24 14 -9
24 -60 39 -92 28 -16 -5 -41 -8 -55 -5 -29 6 -29 6 -31 -64 l-1 -43 184 0
c176 0 184 1 202 22 24 27 24 32 -4 60 -13 13 -34 38 -46 56 -21 31 -35 35
-74 25z"/>
<path d="M2155 10314 c-586 -488 -1028 -993 -1377 -1574 -79 -131 -221 -399
-233 -437 l-6 -23 1868 0 1869 0 28 86 c15 47 30 84 32 81 2 -2 -7 -37 -21
-77 -14 -40 -25 -77 -25 -82 0 -4 52 -8 115 -8 l115 0 0 40 c0 22 -4 40 -10
40 -6 0 -10 30 -10 71 0 66 -2 73 -32 105 -18 19 -38 34 -44 34 -7 0 -15 6
-17 13 -4 9 -8 8 -16 -3 -9 -13 -11 -13 -11 3 0 10 -8 17 -20 17 -13 0 -18 5
-13 16 3 8 -3 27 -14 42 -27 37 -35 72 -17 72 16 0 19 41 5 56 -6 5 -13 66
-17 135 -6 118 -6 127 14 145 18 18 52 99 52 127 0 7 27 42 60 77 33 36 63 74
66 85 4 10 20 30 35 44 19 17 29 35 29 53 0 18 5 28 15 28 17 0 19 12 15 85
-2 49 -2 50 17 33 22 -20 43 -24 43 -8 0 13 33 13 47 -1 15 -15 52 9 59 38 5
20 13 23 77 26 l72 3 -73 2 c-67 2 -73 4 -84 27 -6 14 -15 25 -19 25 -4 0 -10
14 -14 30 -4 17 -12 30 -19 30 -7 0 -21 9 -31 20 -10 11 -27 20 -38 20 -15 0
-18 5 -13 23 3 12 6 25 6 30 0 4 7 7 15 7 21 0 19 47 -2 59 -15 8 -16 12 -5
22 23 24 15 42 -18 36 -17 -4 -30 -2 -30 3 0 6 4 10 8 10 17 0 49 36 55 61 5
18 2 31 -8 39 -17 15 -20 47 -4 52 19 6 23 92 5 111 -10 9 -12 18 -6 22 16 10
12 42 -6 49 -23 9 -25 8 -23 -11 3 -36 -1 -53 -14 -53 -8 0 -28 -16 -46 -35
-37 -41 -50 -44 -43 -10 2 14 9 25 14 25 6 0 8 9 5 19 -3 13 1 21 14 24 26 7
24 30 -3 42 -13 6 -27 20 -33 33 -5 12 -15 22 -21 22 -6 0 -19 9 -29 20 -18
20 -30 20 -274 20 l-254 -1 -145 -142 c-390 -383 -753 -848 -1002 -1282 -63
-110 -98 -161 -65 -95 37 73 152 261 245 400 218 326 440 598 733 896 108 111
197 205 197 209 0 3 -10 -1 -22 -9 -12 -9 -34 -16 -48 -16 -22 1 -23 2 -7 11
43 25 0 37 -85 23 -29 -5 -39 -13 -47 -35 -7 -20 -17 -29 -31 -29 -12 0 -33
-9 -47 -20 -14 -11 -36 -20 -49 -20 -12 0 -25 -4 -28 -9 -3 -5 -26 -12 -51
-15 -25 -4 -45 -11 -45 -17 0 -5 -9 -9 -20 -9 -10 0 -24 -9 -30 -20 -7 -13
-21 -20 -40 -20 -16 0 -32 -4 -35 -10 -3 -5 -19 -10 -36 -10 -17 0 -36 -8 -46
-20 -10 -11 -29 -20 -43 -20 -14 0 -30 -4 -36 -10 -5 -5 -39 -13 -74 -16 -36
-4 -68 -11 -71 -16 -3 -5 -23 -11 -45 -15 -21 -3 -42 -11 -46 -17 -5 -7 -8 -5
-8 5 0 17 109 59 153 59 14 0 58 13 98 30 41 16 80 30 87 30 8 0 25 9 39 20
14 11 40 20 58 20 21 0 39 8 55 25 13 14 30 25 37 25 8 0 16 7 19 15 4 8 15
15 25 15 10 0 19 6 19 14 0 10 -12 13 -48 12 -26 -1 -53 -5 -59 -9 -6 -4 -15
-2 -18 4 -5 7 -24 8 -55 4 -45 -6 -48 -5 -43 13 3 11 16 23 29 26 13 4 24 11
24 16 0 6 -182 10 -508 10 l-507 0 -140 -116z"/>
<path d="M6803 10423 c-7 -2 -13 -16 -13 -29 0 -19 5 -24 24 -24 29 0 41 -14
30 -38 -4 -9 -8 -26 -10 -37 -1 -11 -5 -30 -9 -42 -6 -20 -4 -23 18 -23 14 0
29 5 32 10 3 6 19 10 35 10 24 0 34 10 71 68 23 37 49 77 57 90 l14 22 -118
-1 c-66 0 -125 -3 -131 -6z"/>
<path d="M7005 10340 c-32 -51 -55 -97 -51 -105 3 -8 18 -15 34 -15 32 0 52
-16 52 -42 0 -18 21 -23 78 -18 16 1 22 -4 22 -19 0 -18 7 -21 48 -23 85 -3
91 -4 98 -10 3 -4 0 -19 -8 -35 -8 -15 -22 -43 -31 -61 -19 -37 -22 -83 -8
-110 5 -9 14 -30 20 -45 13 -33 37 -44 62 -29 10 7 24 12 31 12 27 1 65 74 79
150 7 41 18 80 24 86 5 6 28 14 50 17 22 4 41 11 43 17 2 5 12 10 22 10 11 0
28 9 38 21 11 11 32 24 48 28 19 5 28 13 26 25 -2 9 4 24 13 32 11 12 15 30
13 63 -2 37 -8 48 -25 56 -13 5 -23 12 -23 15 0 3 18 15 40 28 22 12 40 27 40
32 0 6 -127 10 -339 10 l-339 0 -57 -90z"/>
<path d="M8132 10409 c2 -12 12 -27 23 -33 11 -6 24 -17 28 -23 11 -18 59 -16
83 2 10 8 28 15 40 15 19 0 41 18 58 48 6 9 -20 12 -114 12 -118 0 -121 -1
-118 -21z"/>
<path d="M8440 10415 c0 -8 4 -15 9 -15 5 0 12 -20 15 -45 4 -25 11 -45 17
-45 5 0 9 -13 9 -30 0 -20 -5 -30 -15 -30 -40 0 -23 -63 20 -74 16 -4 25 -13
25 -26 0 -28 34 -26 48 3 11 22 11 22 7 -3 -7 -32 4 -47 35 -51 19 -3 25 -10
26 -29 2 -55 4 -60 29 -60 35 0 45 -25 28 -69 -16 -39 -62 -67 -130 -78 -21
-3 -40 -9 -43 -12 -3 -3 -14 -11 -25 -17 -11 -6 -30 -26 -42 -44 -13 -18 -23
-29 -23 -24 0 5 -89 8 -206 6 l-206 -3 -41 -39 c-24 -23 -51 -40 -64 -40 -13
0 -40 -10 -61 -23 -20 -12 -46 -27 -56 -33 -11 -6 -22 -16 -24 -24 -7 -21 69
-6 115 23 22 14 57 29 77 32 20 4 39 11 42 16 3 5 25 9 48 9 35 0 45 -4 49
-19 7 -29 -23 -51 -70 -51 -26 0 -43 -5 -46 -14 -8 -20 18 -39 43 -31 11 4 20
2 20 -4 0 -6 -4 -11 -10 -11 -16 0 -11 -67 6 -85 21 -21 71 -46 87 -44 18 3
87 -12 87 -20 0 -9 -49 -29 -92 -36 -21 -4 -38 -11 -38 -16 0 -4 -20 -11 -45
-15 -25 -3 -45 -10 -45 -14 0 -12 -64 -50 -84 -50 -9 0 -16 8 -16 20 0 21 33
60 50 60 6 0 10 4 10 9 0 5 11 12 25 15 31 8 35 46 5 46 -11 0 -20 -4 -20 -9
0 -6 -21 -13 -47 -17 -27 -4 -51 -12 -55 -18 -5 -7 -8 -4 -8 7 0 9 -4 17 -10
17 -5 0 -10 14 -10 30 0 17 4 30 9 30 13 0 21 53 10 66 -5 6 -28 14 -50 18
-38 6 -43 4 -80 -34 -21 -22 -39 -44 -39 -48 0 -19 -47 -62 -68 -62 -13 0 -25
-7 -28 -15 -5 -12 -28 -15 -116 -15 -94 0 -115 -3 -151 -22 -22 -13 -48 -29
-56 -36 -7 -8 -22 -11 -32 -9 -12 3 -16 0 -12 -9 7 -18 28 -18 47 1 8 8 21 15
29 15 8 0 24 9 37 20 20 17 38 20 124 21 56 1 105 1 109 0 4 -1 15 5 23 14 9
8 24 15 34 15 19 0 80 57 80 74 0 20 62 77 77 72 8 -3 26 -6 39 -6 22 0 24 -3
18 -27 -4 -16 -11 -29 -16 -31 -11 -5 -10 -62 1 -62 5 0 11 -8 14 -19 5 -22
-38 -51 -77 -51 -15 0 -29 -7 -32 -15 -4 -9 -19 -15 -39 -15 -31 0 -55 -20
-116 -97 -22 -29 3 -75 32 -57 5 3 9 -2 9 -11 0 -13 -11 -15 -65 -13 -64 3
-66 2 -101 -34 -29 -32 -42 -38 -75 -38 -29 0 -41 -5 -45 -17 -18 -58 -56 -89
-89 -77 -12 5 -15 -3 -15 -38 0 -38 -5 -49 -36 -79 -26 -24 -33 -28 -25 -12 6
12 11 35 11 50 0 16 7 38 15 49 20 27 19 34 -9 34 -37 0 -56 -52 -57 -154 0
-53 -5 -86 -11 -86 -7 0 -7 -5 1 -13 13 -17 5 -27 -24 -27 -12 0 -28 -12 -38
-30 -10 -16 -22 -30 -27 -30 -5 0 -24 -13 -42 -30 -18 -16 -43 -30 -55 -30
-14 0 -23 -6 -23 -15 0 -8 -7 -15 -15 -15 -8 0 -15 -8 -15 -17 -1 -12 -22 -28
-60 -47 -33 -15 -60 -33 -60 -38 0 -5 -10 -19 -23 -31 -34 -33 -57 -73 -57
-102 l0 -25 694 0 c546 0 695 3 699 13 4 10 6 10 6 0 1 -10 194 -13 930 -13
l930 0 4 48 3 47 2 -47 2 -48 630 0 630 0 0 24 c0 13 -6 27 -12 30 -10 5 -10
7 0 12 6 3 12 15 12 25 0 11 5 29 10 39 7 13 7 21 0 25 -27 17 16 55 62 55 27
0 66 24 113 68 24 22 65 99 65 121 0 18 11 13 32 -14 18 -23 25 -25 102 -24
46 1 88 -1 95 -5 7 -4 27 6 47 23 24 22 45 31 69 31 l35 0 0 163 c-1 145 -2
160 -15 143 -18 -23 -20 -62 -4 -71 6 -4 -4 -17 -25 -31 -20 -14 -36 -31 -36
-40 0 -8 -12 -19 -26 -24 -14 -6 -34 -20 -44 -33 -16 -19 -27 -22 -77 -20 -56
3 -91 -7 -123 -34 -19 -15 -33 -7 -51 32 -13 28 -18 30 -71 30 -31 1 -60 3
-63 6 -3 4 -2 17 3 30 12 30 -2 69 -23 69 -22 0 -16 38 12 68 23 25 23 23 27
129 2 52 -1 76 -10 84 -22 18 -16 38 14 52 15 6 32 19 39 27 10 13 15 13 33 2
11 -7 24 -10 29 -8 11 7 59 8 196 2 66 -3 125 -2 131 2 9 6 20 71 24 137 0 6
4 3 10 -5 5 -8 13 -11 17 -6 4 4 -1 15 -12 24 -12 10 -19 26 -17 40 3 18 -4
26 -33 38 -20 8 -34 18 -31 23 8 12 -23 51 -42 51 -9 0 -26 7 -36 15 -11 8
-31 15 -46 15 -28 0 -60 37 -38 44 32 11 84 12 98 4 26 -16 70 7 70 37 0 14
-4 25 -10 25 -5 0 -10 5 -10 10 0 16 37 12 44 -5 7 -20 60 -19 80 1 18 17 23
120 6 109 -6 -3 -39 -6 -75 -6 -38 0 -65 -5 -65 -11 0 -6 -15 -7 -41 -3 -30 5
-43 3 -52 -8 -7 -8 -28 -17 -48 -19 l-36 -4 20 33 c15 27 25 33 52 33 21 0 35
6 39 16 5 12 2 15 -10 10 -9 -4 -22 -2 -29 4 -7 6 -17 10 -21 9 -5 -1 -25 -1
-44 0 -33 2 -34 2 -15 16 39 28 46 37 43 53 -2 10 -12 16 -23 14 -20 -3 -20
-2 -1 13 11 8 32 15 48 15 25 0 28 3 28 34 0 26 -5 36 -21 41 -16 5 -19 12
-15 31 7 27 8 26 -50 15 l-42 -8 10 29 c12 35 -6 66 -28 47 -11 -9 -15 -7 -20
6 -4 10 -1 21 7 25 11 7 10 10 -3 15 -13 5 -16 17 -13 53 5 60 34 88 100 96
l50 6 -37 -34 c-21 -19 -38 -37 -38 -40 0 -3 29 -3 65 1 44 4 65 2 65 -5 0
-16 -42 -86 -57 -95 -21 -13 -5 -27 31 -27 37 0 58 -19 73 -65 6 -19 18 -31
34 -35 14 -3 31 -19 41 -39 9 -19 21 -38 27 -44 5 -5 7 -16 4 -25 -5 -12 -1
-14 18 -9 13 4 27 7 32 7 4 0 8 102 9 228 l3 227 2 -224 c3 -193 6 -227 20
-243 16 -18 16 -21 0 -47 -21 -37 -22 -51 0 -51 15 0 15 -1 0 -18 -19 -20 -23
-92 -6 -92 27 0 50 22 47 47 -3 22 3 27 42 40 25 8 51 20 58 25 8 7 12 7 12
-1 0 -6 7 -11 15 -11 18 0 18 5 5 30 -7 13 -6 21 5 30 8 7 15 22 15 34 1 24
59 56 103 56 14 0 29 5 33 11 4 7 21 9 45 5 31 -5 39 -3 39 9 0 8 5 15 10 15
15 0 12 14 -12 70 -12 27 -28 50 -35 50 -14 0 -18 38 -5 56 11 17 40 24 45 11
3 -7 12 5 21 25 9 21 26 42 37 49 20 10 21 9 15 -14 -3 -14 -8 -31 -11 -39 -4
-9 5 -18 22 -25 26 -10 26 -11 6 -12 -13 -1 -23 -7 -23 -16 0 -7 -6 -18 -13
-22 -8 -4 -17 -19 -20 -34 -8 -31 15 -53 66 -63 26 -5 35 -11 30 -21 -3 -10 1
-15 15 -15 20 0 71 19 82 30 4 4 15 8 38 11 4 1 14 1 22 0 13 -1 13 -2 0 -11
-11 -7 -9 -11 13 -19 15 -6 27 -15 27 -21 0 -15 27 -12 33 4 3 7 22 17 43 20
20 4 46 13 58 21 12 7 40 16 62 20 33 5 43 3 47 -9 10 -25 77 -22 84 4 4 16
14 20 49 20 24 0 44 3 44 6 0 4 -9 33 -21 64 -20 54 -20 59 -5 89 21 39 50 40
88 4 24 -23 31 -25 52 -15 21 9 24 17 22 54 -2 37 -5 43 -23 40 -15 -2 -24 5
-31 28 -12 33 -10 34 63 43 17 2 -61 5 -172 6 -114 0 -203 -3 -203 -8 0 -5 -7
-11 -14 -14 -10 -4 -13 -1 -9 9 4 10 -3 14 -28 14 -28 -1 -31 -2 -16 -11 23
-14 22 -29 -4 -29 -11 0 -17 -4 -14 -10 3 -5 3 -10 -2 -10 -12 0 -11 -114 1
-122 15 -10 -35 -47 -66 -48 -40 0 -58 -10 -58 -31 0 -15 -7 -19 -35 -19 -19
0 -35 5 -35 11 0 6 -7 17 -15 26 -9 8 -13 23 -10 33 4 12 -3 25 -18 37 -24 18
-41 53 -42 83 0 8 -6 15 -14 15 -15 0 -31 33 -24 51 2 7 -9 14 -26 16 -17 3
-31 1 -31 -4 0 -4 -9 -8 -21 -8 -11 0 -37 -14 -59 -31 -39 -32 -120 -52 -120
-30 0 6 -11 11 -24 11 -34 0 -51 23 -31 43 8 9 15 18 15 21 0 3 -416 6 -924 6
l-924 0 -11 -37 -10 -38 5 38 5 37 -775 0 c-727 0 -776 -1 -786 -17 -11 -17
-11 -17 -6 0 5 15 -5 17 -114 17 -100 0 -120 -3 -120 -15z m2977 -297 c7 -6
10 -14 7 -19 -3 -5 0 -9 5 -9 15 0 14 -21 -3 -39 -10 -11 -12 -26 -7 -51 4
-19 3 -47 -2 -62 -7 -23 -15 -28 -42 -28 -19 0 -38 -6 -42 -13 -4 -7 -25 -21
-45 -32 -31 -16 -41 -17 -63 -7 -22 10 -24 15 -15 32 6 11 8 20 4 20 -4 0 0 8
8 18 31 35 30 52 -4 66 -31 13 -31 14 -8 21 22 7 22 8 6 20 -20 15 -6 28 19
19 23 -9 68 16 55 30 -31 38 84 68 127 34z m-2785 -306 c-42 -39 -53 -62 -29
-62 7 0 17 -10 22 -22 10 -24 65 -39 65 -19 0 15 30 14 31 -1 4 -38 1 -89 -5
-95 -3 -3 -6 -15 -6 -25 0 -17 5 -19 31 -13 l30 7 -28 -41 c-15 -22 -30 -40
-33 -40 -3 0 -14 7 -25 15 -14 11 -16 18 -7 21 13 5 17 35 6 46 -10 10 -62
-24 -67 -45 -3 -10 -12 -18 -21 -18 -21 0 -20 10 1 25 10 8 14 19 9 30 -5 14
-13 16 -44 10 -20 -4 -46 -7 -57 -7 -11 0 -36 1 -55 1 -64 2 -70 -1 -82 -41
-6 -21 -13 -36 -15 -34 -3 3 10 52 28 110 18 58 34 104 37 102 2 -3 -4 -28
-13 -56 -9 -28 -15 -54 -12 -57 10 -10 27 8 27 28 0 14 10 25 30 32 17 6 32
18 35 27 8 24 97 116 135 139 53 32 58 25 12 -17z"/>
<path d="M19704 10415 c-5 -12 -30 -14 -154 -10 -170 5 -183 0 -185 -61 0 -22
-4 -45 -8 -52 -5 -6 -5 -12 -1 -12 4 0 -1 -6 -11 -14 -13 -9 -20 -27 -21 -51
0 -25 -8 -43 -21 -54 -28 -21 -39 -61 -22 -72 8 -5 28 -6 46 -3 23 4 36 1 52
-15 12 -12 29 -21 39 -21 11 0 27 -9 37 -20 23 -26 45 -25 52 1 5 18 11 20 40
16 61 -10 158 -62 184 -98 13 -19 33 -42 45 -51 12 -10 24 -34 28 -57 3 -23
19 -55 35 -73 15 -18 41 -57 56 -87 22 -44 25 -58 16 -75 -6 -12 -11 -55 -9
-96 1 -41 -4 -93 -11 -115 -7 -22 -15 -59 -18 -82 -9 -80 -89 -118 -148 -71
l-28 22 -25 -30 c-14 -16 -32 -29 -40 -29 -9 0 -17 -6 -20 -13 -2 -8 2 -10 15
-6 15 6 16 4 6 -7 -17 -18 -16 -44 2 -59 30 -25 14 -74 -32 -99 -26 -13 -31
-49 -8 -57 8 -4 15 -12 15 -20 0 -7 12 -17 28 -20 27 -7 172 -139 172 -157 0
-5 9 -20 20 -34 19 -25 28 -82 13 -84 -5 -1 -27 -2 -49 -3 -23 -1 -54 -10 -68
-20 -23 -14 -26 -22 -21 -47 5 -21 3 -29 -7 -29 -23 0 -38 22 -38 58 0 57 -21
121 -41 127 -22 7 -23 15 -7 50 17 38 -8 59 -80 65 l-57 5 3 51 c4 65 -10 80
-84 90 -65 8 -113 -9 -140 -51 -9 -14 -19 -25 -23 -25 -8 0 -6 68 4 103 6 22
3 33 -14 51 -19 20 -26 22 -55 12 -52 -16 -62 -55 -30 -118 14 -28 24 -52 21
-54 -2 -2 -14 19 -27 46 -13 28 -29 50 -37 50 -16 0 -17 -22 -1 -38 12 -12 5
-14 -62 -16 -14 -1 -26 -8 -28 -17 -3 -18 51 -69 74 -69 8 0 28 -16 45 -35 33
-37 69 -47 69 -19 0 15 10 16 77 10 42 -3 79 -8 82 -11 10 -11 -16 -40 -38
-43 -27 -4 -63 -60 -55 -87 4 -15 3 -16 -4 -6 -8 11 -12 10 -20 -5 -12 -24 -6
-41 20 -55 19 -10 20 -9 15 17 l-6 29 12 -25 c7 -14 28 -50 48 -80 20 -30 43
-67 52 -82 11 -17 32 -32 57 -39 24 -7 40 -18 41 -28 1 -18 4 -33 14 -72 6
-23 2 -28 -27 -40 -28 -12 238 -14 1831 -17 1025 -1 1866 0 1868 2 6 6 -87
187 -167 326 -339 584 -838 1159 -1430 1651 -63 53 -137 112 -163 132 l-49 37
-454 0 c-250 0 -454 -4 -454 -8 0 -5 9 -17 20 -27 11 -10 20 -26 20 -36 0 -25
47 -59 81 -59 23 0 34 -9 54 -40 18 -28 32 -40 49 -40 12 0 31 -9 41 -20 18
-20 17 -20 -8 -20 -14 0 -29 -5 -32 -11 -8 -11 62 -78 83 -79 23 0 12 -20 -12
-20 -38 0 -50 -23 -26 -50 26 -29 26 -50 0 -50 -11 0 -20 -5 -20 -11 0 -6 9
-22 20 -36 20 -26 29 -103 11 -103 -5 0 -23 17 -40 38 -16 21 -49 52 -73 68
-24 16 -81 64 -127 106 -46 43 -87 78 -91 78 -4 0 -28 24 -52 53 -55 64 -70
127 -34 143 17 7 22 19 24 67 l3 57 -186 0 c-117 0 -185 -4 -185 -10 0 -5 18
-10 39 -10 22 0 42 -4 45 -9 3 -4 -12 -8 -33 -8 -21 0 -44 -4 -51 -8 -7 -5
-32 -10 -55 -12 -36 -3 -43 0 -48 17 -6 23 -30 35 -53 26 -13 -5 26 -50 163
-189 202 -206 386 -417 541 -622 58 -77 110 -141 114 -143 4 -2 8 -7 8 -11 0
-5 42 -71 93 -147 91 -137 173 -271 238 -389 58 -106 21 -52 -62 91 -118 203
-267 424 -285 424 -8 0 -12 5 -9 10 19 31 -356 487 -645 784 -186 191 -241
232 -256 191z m60 -394 c11 -12 25 -21 31 -21 12 0 45 -35 105 -109 13 -17 32
-31 42 -31 10 0 26 -16 38 -39 11 -22 31 -48 45 -58 50 -35 147 -113 142 -113
-3 0 -22 10 -42 21 -34 21 -37 21 -53 5 -16 -16 -16 -18 1 -27 9 -6 17 -20 17
-33 0 -24 84 -105 124 -119 10 -4 16 -10 13 -13 -3 -3 -15 0 -27 6 -26 14 -50
7 -50 -14 0 -10 -6 -13 -15 -10 -8 4 -15 10 -15 16 0 5 -11 26 -25 46 -14 20
-25 45 -25 54 0 10 -9 23 -21 30 -11 7 -32 34 -45 60 -13 26 -30 51 -37 55 -7
4 -28 34 -46 66 -18 31 -36 57 -41 57 -5 0 -39 28 -75 62 -48 45 -65 67 -61
81 2 11 -3 25 -15 35 -10 9 -19 20 -19 25 0 11 32 -7 54 -32z m477 -647 c19
-15 58 -37 87 -51 50 -24 69 -25 132 -7 12 3 15 -6 16 -40 1 -38 -2 -44 -28
-54 -22 -8 -28 -16 -28 -41 0 -39 -16 -40 -65 -1 -28 22 -41 27 -54 20 -10 -5
-28 -6 -40 -3 -19 5 -22 2 -19 -13 2 -10 14 -24 26 -30 42 -21 47 -32 19 -39
-18 -5 -31 -1 -46 14 -12 12 -28 21 -36 21 -19 0 -19 24 0 40 9 7 13 21 10 31
-5 14 -1 19 14 19 12 0 21 5 21 11 0 20 -39 95 -59 113 -21 19 -20 36 3 36 7
0 28 -12 47 -26z m109 -299 c0 -18 9 -28 36 -41 40 -19 54 -38 83 -110 12 -33
16 -55 10 -61 -12 -12 17 -131 37 -154 26 -29 9 -74 -19 -50 -17 14 -39 -2
-35 -25 2 -16 -4 -20 -41 -22 -30 -2 -49 2 -62 14 -20 18 -49 13 -49 -10 0 -7
6 -16 14 -19 12 -5 12 -11 3 -32 -9 -19 -18 -25 -37 -23 -20 2 -26 10 -30 38
l-5 35 -54 -2 c-29 -1 -58 -6 -64 -12 -6 -6 -19 -11 -28 -11 -9 0 -22 -7 -29
-15 -14 -17 -83 -16 -102 3 -9 9 -9 12 3 12 9 0 32 18 52 39 31 34 45 41 90
46 34 4 62 3 75 -4 23 -12 38 0 28 24 -3 8 -1 17 4 20 6 4 10 24 10 46 0 42 6
48 25 23 17 -24 47 -10 69 30 24 45 15 156 -14 163 -31 8 -33 108 -2 116 30 8
32 7 32 -18z"/>
<path d="M14919 9946 c-4 -4 -15 -8 -25 -11 -78 -16 -110 -49 -102 -106 3 -22
8 -24 59 -24 34 0 63 -6 75 -15 19 -14 19 -14 0 8 -10 12 -20 36 -22 54 -4 61
37 63 154 7 91 -43 127 -45 140 -8 5 11 12 20 17 19 15 -1 18 39 5 56 -17 19
-30 18 -30 -3 0 -15 -2 -14 -14 3 -13 16 -29 19 -133 22 -65 2 -121 1 -124 -2z"/>
<path d="M5828 9681 c-278 -4 -510 -9 -514 -13 -4 -5 227 -8 513 -8 408 0 522
3 526 13 3 6 6 0 6 -15 1 -26 4 -28 48 -28 26 0 53 -6 62 -14 9 -8 27 -17 41
-20 27 -7 60 8 46 21 -5 4 -11 2 -13 -4 -3 -7 -9 -13 -15 -13 -5 0 -16 6 -23
13 -37 33 -47 37 -85 37 -33 0 -40 3 -40 20 0 15 -6 19 -22 18 -13 -1 -251 -4
-530 -7z"/>
<path d="M14115 9548 c-33 -11 -62 -23 -65 -26 -3 -4 -10 -7 -15 -7 -19 0
-105 -39 -105 -48 0 -5 9 -20 20 -34 28 -35 25 -52 -10 -64 -16 -6 -30 -15
-30 -20 0 -20 -26 -7 -42 21 -11 19 -25 30 -40 30 -22 1 -22 1 6 24 34 28 27
51 -13 43 -15 -3 -33 -2 -41 4 -13 7 -12 9 3 9 9 0 17 4 17 9 0 5 -25 10 -55
10 -45 0 -55 -4 -60 -20 -4 -11 -16 -29 -28 -40 -15 -13 -26 -41 -33 -87 -7
-37 -12 -55 -13 -40 -1 37 -21 46 -23 11 0 -15 -2 -32 -3 -38 -2 -5 -3 -16 -4
-22 0 -7 -8 -13 -16 -13 -8 0 -18 -12 -21 -27 -4 -16 -11 -31 -16 -34 -10 -7
24 -83 42 -94 6 -4 17 -2 24 4 7 6 16 7 20 3 4 -4 14 2 22 12 12 17 14 18 14
3 0 -26 47 -21 81 7 33 28 96 40 166 33 79 -9 91 -12 110 -29 19 -17 68 -26
171 -31 49 -3 70 1 100 18 32 19 37 26 35 56 -1 25 -10 41 -34 62 -30 25 -31
27 -11 27 12 0 22 5 22 10 0 6 -5 10 -12 10 -6 0 -25 10 -42 23 -43 32 -105
67 -119 67 -7 0 -23 9 -37 19 -15 12 -19 19 -10 19 36 -2 49 3 44 16 -3 8 4
23 15 33 27 22 26 29 -1 37 -20 6 -18 9 25 28 43 20 56 38 31 44 -5 1 -36 -7
-69 -18z"/>
<path d="M14793 9530 c-10 -11 -23 -20 -31 -20 -7 0 -27 -8 -45 -17 -18 -9
-35 -16 -40 -15 -4 1 -12 -9 -17 -22 -5 -13 -14 -27 -19 -31 -19 -11 -12 -36
14 -57 19 -15 25 -29 25 -58 0 -29 7 -46 33 -72 75 -79 93 -105 83 -121 -12
-19 27 -67 55 -67 10 0 21 -5 25 -12 4 -7 3 -8 -4 -4 -17 10 -53 -13 -50 -32
1 -9 -4 -27 -11 -40 -15 -28 -6 -95 16 -117 8 -8 26 -15 41 -15 15 -1 42 -14
61 -30 33 -28 36 -29 120 -23 47 3 90 9 94 13 5 4 1 34 -7 66 -11 41 -24 67
-45 84 -24 21 -28 31 -24 57 4 25 1 32 -16 38 -12 4 -21 15 -21 27 0 17 4 19
28 14 49 -12 64 -11 75 6 9 14 3 24 -36 58 -26 23 -44 46 -41 52 3 5 -8 2 -25
-6 -26 -14 -30 -21 -25 -44 4 -23 3 -24 -6 -9 -6 9 -14 36 -18 60 -6 33 -12
43 -30 45 -12 2 -27 12 -33 23 -5 11 -13 18 -17 16 -4 -2 -27 17 -52 41 l-45
45 32 -7 c37 -9 55 10 29 30 -29 20 -10 34 38 28 l43 -6 -4 53 c-6 63 -22 86
-49 71 -14 -7 -26 -6 -44 4 -33 18 -37 17 -57 -6z"/>
<path d="M15341 9516 c-6 -8 -10 -20 -9 -27 2 -8 -3 -13 -9 -11 -7 1 -13 -2
-13 -7 0 -5 -10 -11 -22 -13 -15 -2 -24 -11 -26 -25 -2 -14 -16 -26 -43 -37
-45 -18 -49 -35 -23 -123 21 -72 28 -63 9 11 -20 77 -19 83 15 101 39 20 40
20 40 -14 0 -17 5 -33 11 -36 5 -4 14 -18 19 -31 8 -20 14 -23 42 -17 18 3 34
7 36 8 2 2 -2 22 -8 45 -6 23 -9 44 -7 47 3 2 10 -20 17 -49 16 -69 15 -68 48
-59 23 7 27 12 24 38 -2 18 3 35 13 43 23 19 18 46 -11 65 -19 12 -24 22 -20
38 3 12 9 32 12 45 8 27 -20 31 -35 5 -9 -17 -10 -17 -16 0 -9 21 -28 22 -44
3z"/>
<path d="M12615 9421 c-16 -9 -32 -17 -35 -19 -2 -2 1 -11 8 -22 7 -11 8 -21
2 -25 -18 -11 6 -45 53 -75 34 -21 47 -36 47 -53 0 -23 38 -83 62 -99 7 -4 25
-8 40 -8 20 0 25 -4 21 -18 -3 -14 11 -26 62 -53 45 -23 68 -41 72 -57 8 -35
-1 -36 -38 -1 l-33 31 -23 -27 c-26 -30 -30 -60 -8 -69 21 -8 19 -43 -4 -49
-10 -2 -25 -17 -32 -33 -10 -21 -23 -30 -44 -32 -33 -4 -54 -27 -55 -59 0 -51
-38 -74 -59 -35 -5 9 -27 26 -48 37 -69 36 -63 60 15 61 115 1 131 4 156 28
27 24 30 41 19 96 -3 20 -13 35 -25 37 -10 3 -18 13 -18 23 0 10 -16 27 -35
39 -19 11 -35 25 -35 31 0 5 -12 10 -27 10 -33 0 -129 98 -165 168 -28 54 -90
93 -118 73 -8 -6 -26 -17 -40 -23 -14 -7 -28 -18 -33 -25 -4 -7 -14 -10 -22
-7 -9 4 -18 -1 -21 -11 -5 -13 -14 -15 -43 -10 -20 4 -40 10 -46 15 -5 4 -17
7 -25 7 -8 0 -26 3 -40 7 -17 4 -32 0 -48 -13 -19 -16 -22 -27 -18 -65 4 -42
2 -47 -27 -65 -18 -11 -45 -23 -62 -26 -16 -4 -45 -23 -62 -42 l-33 -34 0
-153 0 -152 69 10 c38 6 73 14 77 19 11 10 122 9 143 -3 19 -10 81 7 81 22 0
4 16 8 35 8 19 0 35 -4 35 -10 0 -5 17 -10 38 -10 26 0 42 6 52 20 19 26 44
25 72 -3 16 -15 22 -32 20 -51 -2 -18 3 -33 17 -45 28 -24 27 -28 -15 -65 -49
-43 -43 -73 21 -106 25 -13 46 -28 46 -34 3 -28 -5 -43 -41 -76 -31 -28 -39
-43 -42 -77 -2 -24 0 -43 4 -43 5 0 8 18 8 41 0 44 10 58 57 83 21 10 33 25
35 41 2 14 6 25 11 25 4 0 22 0 41 0 19 0 41 -7 50 -15 8 -8 31 -15 51 -15 38
0 65 -18 65 -44 0 -9 5 -16 10 -16 6 0 10 -6 10 -12 0 -15 45 -38 72 -38 10 0
18 -4 18 -10 0 -5 17 -10 39 -10 22 0 44 -6 51 -15 8 -10 30 -15 61 -15 37 0
49 4 49 15 0 8 5 15 10 15 6 0 10 18 10 40 0 22 -4 40 -10 40 -5 0 -10 7 -10
15 0 8 7 15 15 15 8 0 15 5 15 10 0 6 9 10 20 10 12 0 31 7 44 16 17 11 26 12
31 4 4 -6 18 -15 31 -20 13 -5 24 -16 24 -24 0 -16 50 -36 91 -36 31 0 48 -18
29 -30 -6 -4 -10 -16 -7 -26 4 -17 6 -17 12 4 6 19 14 22 61 22 29 0 56 -4 59
-10 3 -5 15 -10 26 -10 10 0 19 -4 19 -10 0 -5 12 -10 27 -10 15 0 41 -5 59
-12 30 -11 35 -10 54 12 11 13 20 32 21 44 1 19 2 18 9 -4 4 -14 8 -19 9 -12
1 7 17 12 44 12 40 0 44 -3 57 -35 8 -19 20 -35 27 -35 16 0 16 9 -2 40 -8 14
-14 27 -15 31 0 3 30 4 67 3 l68 -3 17 -38 c10 -21 15 -27 12 -13 -3 14 -11
34 -18 44 -10 16 -7 34 16 100 21 62 29 106 33 186 2 58 7 118 11 134 6 27 4
28 -17 22 -13 -4 -39 -7 -57 -6 -20 0 -44 -8 -59 -20 -34 -26 -62 -25 -114 5
-24 14 -52 25 -61 25 -26 0 -58 -36 -59 -67 l-1 -28 -7 25 c-4 17 -15 26 -31
28 -14 2 -30 10 -37 19 -6 8 -27 16 -47 18 -44 4 -57 12 -50 29 8 20 -36 62
-73 70 -18 4 -36 12 -39 18 -5 7 1 9 16 5 57 -15 87 55 32 74 -24 8 -28 14
-24 38 3 23 -1 29 -19 34 -33 9 -121 -22 -127 -45 -5 -22 -16 -23 -36 -3 -8 8
-19 15 -25 15 -14 0 -14 -45 0 -71 7 -15 7 -24 -2 -35 -6 -8 -8 -14 -4 -14 4
0 2 -7 -5 -15 -10 -12 -10 -15 0 -15 16 0 70 -39 70 -51 0 -14 -42 -7 -58 9
-7 6 -25 12 -39 12 -21 0 -24 -2 -13 -15 7 -8 20 -15 30 -15 10 0 20 -9 23
-20 4 -16 0 -20 -18 -20 -22 0 -23 -2 -13 -36 5 -20 7 -38 4 -42 -3 -3 -6 0
-6 6 0 19 -30 14 -31 -5 -1 -18 -1 -17 -15 26 -3 11 -7 11 -20 0 -14 -11 -15
-9 -9 23 4 23 3 38 -5 43 -8 5 -7 14 5 31 13 20 13 24 1 24 -8 0 -18 9 -21 21
-4 11 -22 47 -41 81 -33 59 -34 63 -24 116 12 68 12 62 -1 62 -6 0 -47 32 -91
70 -59 53 -85 69 -99 65 -13 -4 -19 -2 -19 8 0 8 -7 17 -14 20 -8 3 -27 31
-41 61 -26 56 -50 71 -62 40 -6 -15 -7 -15 -19 1 -7 9 -10 23 -8 30 8 19 -28
23 -61 6z"/>
<path d="M489 8182 c-259 -575 -410 -1245 -435 -1933 l-7 -179 966 0 966 0 4
103 3 102 2 -102 2 -103 975 0 974 0 4 118 3 117 2 -117 2 -118 965 0 964 0 4
143 3 142 2 -142 2 -143 354 0 c302 0 355 2 366 15 7 8 20 15 29 15 9 0 23 6
30 13 11 10 14 9 18 -1 8 -21 34 -42 51 -41 14 0 14 2 2 6 -50 20 -69 113 -25
122 28 5 33 16 41 98 3 40 10 76 15 79 13 8 11 123 -3 162 -11 29 -10 35 5 47
9 6 17 20 17 29 0 9 6 16 13 16 16 0 57 44 57 62 0 7 10 18 22 23 15 7 25 22
28 45 8 46 17 60 40 60 10 0 31 7 47 15 54 28 119 55 131 55 21 0 13 -20 -13
-30 -14 -5 -25 -14 -25 -20 0 -6 9 -6 25 0 21 8 25 7 25 -9 0 -31 25 -31 61
-1 36 32 55 37 112 31 23 -2 37 -8 37 -17 0 -8 5 -14 10 -14 6 0 10 -7 10 -15
0 -17 6 -18 77 -15 28 1 66 -5 85 -13 56 -25 67 -27 83 -11 8 8 31 18 50 21
20 3 38 10 41 14 14 23 34 7 34 -26 0 -35 0 -35 44 -35 48 0 59 -12 43 -47
-13 -30 8 -56 40 -50 34 6 38 -9 8 -39 -26 -26 -30 -54 -8 -61 7 -3 10 3 7 14
-3 10 4 29 15 42 13 15 21 39 22 65 l1 41 8 -39 c4 -21 11 -41 16 -45 14 -10
34 -49 34 -67 0 -19 28 -43 49 -44 21 0 40 -31 41 -65 0 -22 3 -26 12 -17 8 8
46 12 105 12 74 0 93 -3 93 -14 0 -8 -4 -18 -10 -21 -13 -8 -13 -35 0 -35 6 0
10 9 10 19 0 28 18 36 39 17 10 -9 24 -16 32 -16 29 0 68 -25 72 -47 2 -13 -2
-35 -10 -50 -9 -18 -10 -30 -3 -37 7 -7 10 -4 10 9 0 11 7 29 15 39 15 19 15
19 15 -2 0 -26 20 -72 32 -72 4 0 8 -20 8 -45 0 -41 2 -45 25 -45 29 0 32 -19
9 -55 l-16 -25 676 0 676 0 3 248 2 247 3 -247 2 -248 990 0 990 0 0 190 0
190 -30 0 c-16 0 -30 -3 -30 -7 0 -5 -21 -16 -48 -26 -26 -10 -55 -23 -64 -28
-15 -7 -23 -1 -48 38 -16 27 -30 41 -30 33 0 -9 6 -22 13 -29 10 -11 0 -12
-58 -7 -53 5 -77 3 -99 -9 -15 -8 -36 -15 -45 -15 -24 0 -71 -23 -71 -35 0 -5
-5 -3 -10 5 -5 8 -7 30 -4 48 4 20 2 32 -5 32 -6 0 -11 -19 -11 -45 0 -39 -3
-45 -20 -45 -12 0 -30 9 -42 20 -12 11 -28 20 -35 20 -7 0 -13 5 -13 10 0 14
-46 60 -60 60 -5 0 -10 5 -10 10 0 6 -8 10 -18 10 -15 0 -46 34 -47 52 0 3
-13 17 -30 29 -16 13 -36 31 -43 41 -7 9 -19 24 -27 32 -8 8 -15 18 -15 23 1
19 59 73 79 73 12 0 19 4 16 10 -12 19 -40 10 -63 -19 l-23 -30 -40 38 c-21
21 -39 46 -39 55 0 9 -4 16 -9 16 -5 0 -13 9 -16 20 -3 11 -13 20 -21 20 -8 0
-14 10 -14 23 0 29 -18 47 -47 47 -39 0 -25 20 15 21 25 1 29 3 12 6 -85 13
-94 32 -25 51 58 15 92 15 98 0 3 -10 10 -10 30 1 21 11 24 17 16 28 -6 7 -22
13 -35 13 -13 0 -24 5 -24 10 0 6 -9 10 -20 10 -22 0 -27 -15 -7 -24 6 -3 1
-3 -13 1 -14 4 -34 7 -45 7 -22 0 -45 18 -45 35 0 6 -4 11 -10 11 -5 0 -10 11
-10 25 0 14 4 25 8 25 24 0 52 39 52 74 0 34 2 36 33 37 31 2 31 2 4 6 -25 4
-28 8 -22 26 4 12 10 48 12 80 4 47 2 61 -12 71 -14 10 -15 17 -6 34 17 31 13
66 -9 90 -11 12 -20 24 -20 27 0 3 56 5 125 5 l125 0 -1 53 c-1 28 -3 43 -6
32 -15 -72 0 -65 -138 -65 -136 0 -147 6 -101 49 14 13 35 49 47 80 13 31 40
73 61 93 31 31 38 44 38 77 0 39 8 52 48 80 11 8 29 33 39 55 24 55 36 66 72
66 17 0 31 5 31 10 0 6 7 10 16 10 19 0 94 76 94 95 0 8 6 16 13 18 6 3 -275
6 -625 6 l-637 1 -4 -52 -3 -53 -2 53 -2 52 -1625 0 c-1691 0 -1652 1 -1613
-38 17 -17 16 -238 0 -254 -7 -7 -12 -20 -12 -30 0 -30 -26 -20 -46 17 -10 19
-22 35 -25 35 -4 0 -10 15 -13 34 -4 19 -12 37 -19 39 -9 4 -9 6 1 6 17 1 17
127 0 146 -7 8 -19 21 -26 30 -11 12 -44 15 -199 15 l-185 0 6 -30 c6 -31 1
-36 -24 -20 -9 6 -17 5 -22 -3 -5 -8 -8 -6 -8 6 0 18 -34 24 -45 7 -11 -17
-35 -11 -35 9 0 25 -33 36 -60 19 -17 -11 -22 -11 -29 1 -7 11 -23 13 -66 8
-48 -5 -63 -11 -93 -41 -19 -20 -43 -36 -53 -36 -26 0 -49 -11 -50 -24 0 -6
-19 -25 -42 -42 -29 -21 -41 -37 -39 -50 2 -10 6 -32 9 -48 l6 -29 -46 6 c-71
10 -87 24 -87 77 0 28 -8 56 -20 75 -11 17 -20 42 -20 56 0 32 -29 59 -61 58
-20 -1 -21 -2 -4 -6 32 -8 45 -24 45 -55 0 -16 9 -41 19 -56 12 -15 21 -48 23
-76 2 -36 8 -52 23 -60 11 -6 23 -15 26 -20 4 -5 14 -6 23 -3 9 4 16 2 16 -3
0 -5 13 -10 30 -12 l30 -3 -31 -47 c-17 -26 -33 -66 -36 -90 -3 -24 -9 -47
-13 -53 -30 -39 -10 -187 30 -231 12 -12 20 -34 20 -55 0 -39 15 -59 42 -59
10 0 27 -9 39 -21 17 -17 27 -19 67 -13 26 3 52 10 57 14 24 17 45 18 60 4 19
-19 55 -9 55 16 0 9 9 20 20 23 12 3 20 14 20 26 0 12 6 24 14 27 8 3 20 34
27 72 7 37 15 59 17 50 4 -23 58 -24 98 -3 39 20 104 20 104 0 0 -18 -38 -76
-57 -88 -8 -5 -13 -29 -13 -57 0 -40 -3 -48 -15 -44 -8 4 -15 1 -15 -5 0 -6
-8 -11 -19 -11 -10 0 -30 -9 -44 -20 -14 -11 -35 -20 -46 -20 -12 0 -21 -4
-21 -10 0 -5 5 -10 11 -10 8 0 10 -19 5 -64 -6 -60 -5 -66 16 -81 l23 -15 -22
-6 c-13 -4 -23 -10 -23 -15 0 -13 27 -11 42 4 7 7 21 16 31 20 9 3 17 11 17
17 0 5 16 10 35 10 19 0 35 -4 35 -10 0 -5 13 -10 29 -10 17 0 33 5 36 10 16
26 115 2 115 -29 0 -6 8 -11 18 -11 16 -1 16 -1 0 -14 -26 -19 -22 -26 12 -19
24 4 30 2 30 -11 0 -10 -7 -24 -15 -32 -10 -10 -15 -35 -15 -69 0 -30 -4 -56
-9 -59 -15 -10 -22 -94 -11 -135 6 -24 20 -46 32 -52 l22 -12 -22 -8 c-19 -7
-21 -13 -16 -54 5 -30 3 -45 -5 -45 -6 0 -11 12 -11 26 0 25 -20 54 -38 54 -5
0 -13 11 -16 25 -7 28 -24 33 -32 10 -10 -24 -34 2 -34 36 0 16 -4 29 -10 29
-5 0 -10 5 -10 10 0 6 7 10 15 10 8 0 15 5 15 10 0 6 -5 10 -12 10 -6 0 -33
23 -59 52 -43 47 -47 54 -34 68 18 20 19 31 3 29 -32 -4 -46 3 -51 22 -4 14
-11 20 -20 16 -18 -7 -67 42 -68 69 -1 15 -3 14 -8 -6 -4 -14 -13 -24 -19 -23
-7 2 -12 -2 -12 -8 0 -6 9 -9 19 -6 13 3 28 -5 46 -25 22 -24 29 -27 36 -17 6
10 9 4 9 -18 0 -31 -12 -43 -24 -24 -3 4 -24 11 -46 15 -22 3 -40 12 -41 19 0
6 -4 3 -9 -8 -8 -18 -9 -18 -9 5 -1 23 -4 25 -39 22 -31 -3 -42 1 -65 27 -15
17 -27 37 -27 44 0 22 31 80 53 100 28 24 5 21 -27 -4 -14 -11 -26 -29 -26
-40 0 -11 -7 -27 -15 -35 -13 -14 -16 -14 -23 3 -4 10 -17 33 -27 50 -18 29
-25 33 -63 33 -30 0 -50 -6 -65 -21 -19 -18 -30 -20 -82 -14 -40 4 -76 16
-108 36 -26 16 -56 29 -66 29 -19 0 -61 29 -97 67 -12 13 -32 23 -45 23 -13 0
-37 7 -53 15 -15 8 -34 15 -41 15 -8 0 -17 9 -20 20 -3 11 -12 20 -19 20 -31
0 -73 93 -46 102 10 3 15 82 7 128 -5 34 -23 77 -36 85 -6 3 -11 14 -11 24 0
10 -16 33 -36 52 -20 19 -46 45 -58 58 -11 13 -29 31 -39 40 -20 18 -21 34 -5
60 10 16 7 23 -14 43 -15 13 -28 37 -30 53 -2 22 -9 31 -24 33 -16 2 -25 17
-39 65 -10 34 -21 66 -25 70 -4 4 -36 7 -71 5 l-64 -3 21 -20 c13 -12 30 -54
43 -104 12 -46 28 -93 36 -104 8 -12 15 -41 15 -64 0 -24 5 -43 10 -43 6 0 10
-16 10 -35 0 -21 5 -35 13 -35 19 -1 49 -48 45 -73 -2 -12 -11 -23 -20 -25
-14 -3 -18 3 -18 23 0 14 -10 36 -23 48 -35 33 -47 61 -47 112 0 37 -5 51 -26
70 -15 14 -33 25 -41 25 -16 0 -59 27 -85 53 -17 16 -17 17 11 17 16 0 37 7
45 16 20 20 21 60 1 68 -8 3 -15 12 -15 19 0 8 -8 24 -19 35 l-18 22 -2002 0
-2002 0 -30 -68z m6153 -442 c22 -6 39 -19 43 -30 4 -12 15 -20 28 -20 13 0
45 -15 73 -32 85 -55 94 -59 94 -47 0 7 11 1 23 -13 13 -14 38 -29 55 -33 18
-3 32 -12 32 -18 0 -8 -28 -12 -88 -12 -86 0 -89 1 -115 30 -15 17 -30 40 -33
52 -6 22 -30 33 -73 33 -20 0 -21 2 -11 15 11 13 6 15 -31 15 -24 0 -53 7 -63
15 -11 8 -16 15 -10 15 5 0 1 7 -9 14 -21 16 -65 9 -91 -16 -11 -10 -28 -18
-38 -18 -10 0 -23 -9 -30 -20 -16 -25 -28 -26 -21 -1 7 28 43 58 83 69 47 14
137 14 182 2z m600 -244 c8 -7 23 -16 35 -20 12 -4 27 -13 33 -21 7 -8 23 -15
36 -15 26 0 27 -1 18 -24 -7 -19 -27 -20 -55 -3 -17 10 -23 10 -26 0 -3 -8
-21 -13 -43 -13 -29 0 -39 -4 -43 -20 -3 -11 -12 -20 -21 -20 -13 0 -16 11
-16 55 0 30 5 55 10 55 6 0 10 6 10 14 0 12 12 20 42 25 4 0 13 -5 20 -13z
m-822 -775 c0 -22 38 -45 53 -33 7 5 29 12 50 16 21 4 41 14 44 22 3 9 20 14
48 14 45 0 94 -30 115 -71 15 -27 2 -69 -22 -69 -16 0 -19 5 -14 28 7 33 1 43
-41 67 -28 16 -35 17 -58 5 -14 -7 -25 -20 -25 -27 0 -7 -7 -16 -16 -20 -12
-4 -14 -14 -10 -34 4 -23 2 -29 -12 -29 -19 1 -62 33 -62 48 0 13 -25 22 -61
22 -28 0 -29 2 -29 44 0 39 2 44 20 39 11 -3 20 -13 20 -22z"/>
<path d="M13873 8210 c5 -36 66 -140 89 -148 4 -2 8 -17 8 -34 0 -20 9 -39 30
-58 17 -15 30 -34 30 -42 0 -8 4 -18 9 -23 25 -28 61 -110 61 -141 0 -36 29
-73 58 -74 6 0 12 -7 12 -15 0 -8 5 -15 10 -15 6 0 10 -9 10 -19 0 -11 4 -21
9 -23 6 -1 15 -40 20 -86 12 -96 19 -111 63 -142 37 -25 63 -79 73 -152 7 -50
20 -69 80 -114 52 -38 60 -46 67 -65 4 -9 19 -19 33 -23 33 -8 55 -29 55 -50
0 -9 4 -16 10 -16 5 0 12 -11 16 -25 3 -14 10 -25 15 -25 5 0 9 -4 9 -10 0 -5
-6 -10 -14 -10 -17 0 -25 -18 -18 -42 2 -10 14 -18 26 -18 16 0 25 -10 35 -35
11 -33 15 -35 56 -35 24 0 47 5 50 10 3 6 31 10 61 10 34 0 61 5 69 14 8 7 49
19 92 25 42 6 93 21 111 32 19 11 37 18 39 15 8 -8 4 -159 -4 -165 -5 -3 -13
-15 -19 -26 -6 -11 -23 -42 -37 -68 -15 -26 -27 -54 -27 -62 0 -8 -4 -15 -10
-15 -5 0 -10 -9 -10 -20 0 -25 -19 -67 -47 -106 -13 -17 -23 -41 -23 -52 0
-12 -4 -22 -10 -22 -5 0 -10 -5 -10 -11 0 -5 -20 -30 -45 -55 -25 -24 -45 -49
-45 -55 0 -14 -18 -31 -65 -62 -46 -29 -95 -71 -95 -81 0 -3 238 -6 530 -6
l530 0 3 168 3 167 2 -167 2 -168 1010 0 1009 0 4 143 3 142 2 -142 2 -143
265 0 c146 0 265 3 265 8 0 4 -5 24 -11 45 -8 30 -18 42 -45 53 -25 11 -34 20
-34 38 0 24 -50 86 -82 102 -28 15 -78 85 -78 111 l0 24 29 -22 c22 -16 38
-20 64 -16 28 4 39 1 56 -17 12 -12 21 -27 21 -32 0 -12 42 -54 54 -54 10 0
51 -42 72 -76 9 -13 26 -26 37 -30 12 -3 30 -13 39 -21 10 -9 24 -13 32 -10
10 4 16 -1 18 -15 2 -15 13 -24 36 -30 25 -7 32 -14 32 -33 l0 -25 205 0 205
0 0 32 c0 19 9 41 22 55 19 20 23 21 38 8 9 -8 31 -16 50 -17 31 -3 34 0 41
29 9 43 26 63 54 63 39 0 54 10 85 57 17 24 30 46 30 48 0 14 50 50 70 50 16
0 26 7 28 18 2 10 14 29 27 43 13 14 25 35 27 47 6 43 73 32 90 -14 3 -9 22
-23 41 -32 19 -9 40 -23 46 -31 9 -11 6 -16 -19 -24 -30 -11 -40 -36 -17 -45
7 -3 5 -7 -8 -12 -43 -17 -56 -36 -49 -74 4 -20 15 -44 26 -55 12 -11 18 -26
14 -39 -4 -15 5 -29 32 -53 l37 -33 -42 -1 c-23 0 -45 -5 -48 -10 -5 -7 22
-10 82 -8 l88 3 6 115 5 115 2 -107 c1 -60 6 -108 11 -108 5 0 11 5 13 12 3 9
17 8 59 -1 30 -7 76 -14 103 -17 47 -5 51 -3 83 32 37 42 56 39 30 -5 -9 -16
-17 -32 -17 -35 0 -3 40 -6 90 -6 72 0 88 3 84 14 -3 7 2 31 11 52 17 38 17
38 28 16 7 -16 17 -22 30 -18 17 4 19 1 14 -30 l-6 -34 704 0 704 0 4 103 3
102 2 -102 2 -103 990 0 990 0 0 89 c0 230 -40 615 -91 881 -73 379 -206 797
-357 1122 l-41 88 -1819 0 -1820 0 -6 -23 c-3 -12 -6 -35 -6 -52 0 -20 -9 -36
-27 -51 -22 -17 -26 -29 -26 -68 0 -30 -4 -42 -9 -34 -5 8 -8 -7 -6 -39 1 -37
-3 -58 -15 -71 -9 -10 -17 -22 -17 -26 0 -4 -27 -34 -60 -67 -33 -32 -60 -63
-60 -69 0 -5 -10 -10 -22 -10 -13 0 -36 -9 -53 -20 -16 -11 -47 -20 -67 -20
-20 0 -40 -5 -44 -11 -11 -18 -76 -42 -129 -48 l-50 -6 -3 -47 c-3 -40 -7 -48
-22 -48 -25 0 -42 33 -35 63 6 22 3 25 -33 31 -22 3 -48 3 -56 0 -9 -3 -41 6
-70 20 -47 23 -54 30 -53 54 2 22 -3 27 -21 28 -17 1 -18 1 -3 -3 14 -3 19
-12 18 -30 -2 -22 6 -31 50 -54 48 -25 51 -28 34 -43 -10 -9 -25 -16 -33 -16
-9 0 -18 -12 -22 -31 -3 -16 -13 -37 -21 -45 -30 -31 -5 -144 32 -144 7 0 13
-9 13 -19 0 -19 84 -91 138 -120 12 -6 22 -19 22 -27 0 -9 9 -27 20 -41 11
-14 20 -34 20 -45 0 -10 8 -30 17 -45 12 -18 17 -46 17 -93 0 -55 -4 -74 -24
-104 -24 -34 -63 -56 -101 -56 -10 0 -21 -12 -28 -31 -6 -17 -32 -51 -58 -75
-43 -41 -48 -43 -55 -25 -4 11 -3 33 1 49 8 25 5 33 -19 56 -16 14 -38 26 -49
26 -12 0 -24 7 -27 15 -4 8 -12 15 -20 15 -8 0 -14 9 -14 20 0 28 -29 70 -47
70 -8 0 -26 9 -40 20 -14 11 -36 20 -49 20 -19 0 -22 5 -21 27 2 34 -26 43
-54 17 -15 -14 -19 -31 -19 -85 0 -37 -4 -70 -9 -74 -5 -3 -15 -22 -21 -41
-15 -45 2 -110 31 -117 11 -3 19 -12 19 -20 0 -8 17 -44 38 -78 30 -48 47 -67
72 -75 19 -6 37 -21 41 -33 5 -11 13 -21 19 -21 11 0 56 -48 74 -77 4 -8 10
-51 12 -95 3 -70 6 -83 29 -104 28 -26 32 -46 11 -63 -19 -16 -60 1 -108 44
-21 19 -42 35 -47 35 -5 0 -12 16 -15 35 -4 19 -18 48 -32 65 -14 16 -23 33
-21 37 9 15 -12 128 -26 138 -7 5 -19 21 -26 34 -22 40 -92 111 -110 111 -15
0 -16 7 -10 48 4 26 10 57 14 68 4 12 2 25 -4 28 -16 10 -14 56 3 56 7 0 20 8
27 18 13 15 12 16 -4 3 -15 -12 -17 -12 -11 2 3 10 -2 20 -13 28 -16 10 -19
20 -15 64 4 43 1 56 -16 73 -12 12 -18 28 -15 40 2 10 -3 36 -11 57 -9 20 -16
50 -16 65 0 15 -8 38 -18 51 -10 13 -23 37 -30 52 -17 39 -46 33 -50 -11 -2
-18 -9 -32 -16 -32 -8 0 -19 -7 -26 -15 -15 -19 -96 -21 -103 -2 -2 6 0 27 6
46 17 63 -24 161 -68 161 -14 0 -25 5 -25 10 0 6 5 10 10 10 20 0 9 39 -16 59
-21 17 -30 18 -47 10 -17 -10 -23 -7 -39 12 -27 34 -39 69 -33 90 10 29 -31
111 -52 107 -15 -3 -18 -12 -16 -53 2 -36 0 -43 -5 -25 -6 19 -14 24 -33 21
-13 -1 -27 -8 -31 -14 -4 -6 -33 -11 -65 -12 -83 -2 -113 -19 -113 -65 0 -42
-10 -56 -69 -96 -25 -16 -58 -48 -75 -71 -16 -24 -38 -45 -48 -49 -10 -3 -18
-11 -18 -18 0 -7 -11 -23 -25 -36 -14 -13 -25 -29 -25 -36 0 -18 -31 -39 -52
-36 -13 2 -18 -3 -18 -17 0 -14 -6 -21 -20 -21 -11 0 -27 -11 -35 -24 -13 -20
-14 -37 -5 -113 7 -65 7 -99 -1 -123 -7 -19 -9 -54 -5 -87 6 -49 4 -55 -14
-60 -13 -3 -22 -17 -26 -40 -4 -19 -13 -37 -21 -40 -7 -3 -23 -23 -34 -44 -11
-22 -24 -39 -30 -39 -17 0 -49 20 -49 31 0 6 -7 17 -15 25 -8 9 -15 26 -15 39
0 39 -59 178 -85 200 -18 15 -25 37 -33 94 -8 52 -17 79 -31 93 -12 10 -33 42
-49 70 -15 28 -33 60 -39 72 -7 12 -13 37 -13 56 0 19 -10 60 -21 90 -28 72
-34 113 -19 140 9 17 8 26 -4 45 -9 14 -16 35 -16 48 0 30 -23 62 -38 53 -7
-4 -12 -24 -12 -45 0 -42 -10 -55 -52 -65 -24 -5 -36 1 -83 46 -30 28 -55 56
-55 60 0 4 13 8 29 8 29 0 60 25 47 37 -4 4 -24 6 -44 4 -29 -2 -44 4 -63 22
-13 13 -37 32 -52 42 -15 10 -34 30 -42 46 -8 15 -24 30 -34 34 -11 3 -18 12
-15 19 3 7 -2 19 -11 26 -13 11 -23 11 -48 2 -18 -6 -72 -11 -122 -11 -49 0
-106 -5 -125 -11 -27 -8 -44 -6 -79 7 -42 16 -44 16 -57 -2 -11 -15 -14 -16
-14 -3 0 15 -53 31 -106 32 -30 1 -64 34 -64 63 0 60 -79 83 -132 38 -31 -26
-53 -32 -63 -15 -3 6 -14 10 -24 10 -9 0 -38 14 -64 30 -26 17 -59 30 -72 30
-21 0 -30 11 -55 61 -44 91 -41 89 -136 89 -77 0 -84 -2 -84 -20 0 -11 6 -20
13 -20 7 0 18 -12 25 -27 24 -54 42 -81 82 -122 29 -29 40 -50 40 -71 0 -19 7
-34 20 -42 11 -7 20 -22 20 -34 0 -26 24 -49 41 -39 7 5 9 22 5 46 -5 32 -3
39 10 39 14 0 16 -8 11 -55 -5 -54 -5 -56 25 -71 17 -9 40 -13 54 -10 14 4 33
2 43 -3 30 -16 96 23 121 72 24 44 70 104 70 90 0 -5 -6 -15 -12 -21 -9 -9
-10 -15 -2 -20 6 -4 14 -24 18 -44 9 -47 85 -118 127 -118 37 0 60 -10 53 -22
-4 -5 8 -23 25 -38 39 -36 39 -50 1 -93 -16 -19 -30 -40 -30 -46 0 -6 -8 -11
-18 -11 -13 0 -22 -13 -31 -50 -9 -35 -22 -58 -42 -72 -17 -13 -29 -31 -29
-44 0 -17 -8 -24 -37 -31 -35 -9 -38 -12 -35 -41 2 -33 -3 -38 -27 -23 -10 6
-25 4 -42 -5 -16 -8 -38 -14 -50 -14 -12 0 -37 -10 -56 -21 -29 -18 -33 -25
-28 -50 5 -24 2 -30 -24 -43 -16 -9 -38 -16 -47 -16 -23 0 -102 -39 -138 -68
-16 -13 -35 -21 -43 -18 -8 3 -24 0 -36 -8 -12 -8 -38 -17 -57 -21 -19 -4 -66
-20 -103 -37 -61 -26 -71 -28 -89 -16 -12 8 -22 27 -24 44 -4 50 -21 115 -33
127 -16 16 -14 46 4 63 16 16 9 38 -22 72 -37 41 -103 143 -109 169 -10 40
-45 82 -71 82 -29 1 -61 58 -68 123 -11 91 -15 100 -76 160 -32 32 -59 67 -59
76 0 9 -16 40 -35 67 -20 28 -47 67 -61 87 -14 20 -39 41 -55 47 l-30 10 7 66
c6 54 4 65 -8 65 -12 0 -17 -15 -20 -60 -2 -33 -9 -65 -14 -70 -12 -12 -67 62
-78 103 -4 19 -13 27 -28 27 -18 0 -20 -4 -15 -40z m5798 -815 l49 1 25 -51
c14 -29 25 -57 25 -62 0 -6 -11 -31 -25 -56 -19 -34 -24 -53 -19 -74 12 -48
36 -72 72 -73 17 0 32 -4 32 -9 0 -5 14 -11 30 -14 20 -5 30 -12 30 -25 0 -10
6 -27 14 -37 10 -14 11 -25 4 -38 -5 -10 -7 -24 -5 -31 3 -8 -4 -11 -24 -8
-29 4 -29 5 -14 28 14 22 14 25 0 30 -12 5 -13 9 -4 20 9 11 8 18 -1 29 -15
18 -40 20 -40 3 0 -6 -10 -2 -23 10 -15 14 -36 22 -60 22 -34 0 -37 2 -37 30
0 43 -30 41 -31 -2 l-2 -33 -4 30 c-2 17 -10 35 -17 40 -17 14 -56 80 -56 95
0 8 8 10 26 6 21 -6 25 -4 20 11 -5 16 -17 101 -30 218 -4 30 -2 27 6 -11 l10
-50 49 1z m333 -489 c5 -31 5 -51 -2 -58 -7 -7 -7 -19 -2 -34 7 -18 6 -24 -4
-24 -8 0 -17 12 -20 26 -11 42 -35 24 -63 -46 -32 -82 -35 -85 -63 -62 -23 19
-24 20 -8 68 13 42 19 49 44 52 39 5 51 16 59 60 16 85 45 94 59 18z m-2920
-181 c4 -14 11 -25 16 -25 6 0 10 -5 10 -12 0 -7 15 -40 32 -75 32 -61 32 -63
16 -90 -17 -29 -75 -50 -91 -33 -9 8 -13 123 -7 190 1 19 -1 43 -5 53 -5 12
-3 17 8 17 8 0 18 -11 21 -25z m2996 -64 c0 -16 7 -31 15 -35 17 -6 22 -116 5
-116 -5 0 -10 6 -10 14 0 22 -29 41 -42 28 -9 -9 -9 -21 1 -48 7 -19 11 -38 8
-40 -3 -3 -23 4 -46 16 -34 17 -41 25 -41 50 0 19 7 33 20 40 36 19 11 31 -58
28 -76 -4 -92 -11 -92 -39 0 -12 -5 -19 -12 -16 -24 7 -15 51 14 65 16 7 32
21 38 31 12 23 50 35 50 15 0 -19 13 -18 55 7 25 15 38 31 42 52 l6 30 24 -27
c12 -15 23 -40 23 -55z"/>
<path d="M202 7453 c-92 -334 -146 -651 -173 -1012 -13 -180 -7 -772 10 -926
43 -383 133 -823 220 -1065 30 -84 25 -50 -9 58 -76 248 -152 622 -184 917
-78 697 -23 1430 156 2064 16 57 27 105 25 108 -3 2 -23 -63 -45 -144z"/>
<path d="M11950 6936 c0 -8 12 -16 27 -18 20 -2 32 -13 48 -43 11 -22 25 -44
30 -48 6 -6 6 -10 -2 -14 -7 -2 -13 -13 -13 -24 0 -10 -8 -28 -17 -39 -10 -11
-19 -24 -19 -28 -5 -26 -18 -52 -25 -52 -5 0 -9 -38 -9 -85 0 -50 -4 -85 -10
-85 -5 0 -10 5 -10 10 0 6 -4 10 -10 10 -5 0 -10 -7 -10 -15 0 -19 -57 -21
-63 -2 -2 6 -2 2 0 -10 2 -13 -1 -23 -7 -23 -6 0 -10 -71 -10 -200 l0 -200
295 0 c285 0 295 1 295 19 0 11 5 23 10 26 14 9 12 141 -2 167 -7 12 -21 31
-30 42 -10 11 -18 23 -18 28 0 4 -7 8 -15 8 -10 0 -14 7 -12 23 2 12 2 17 0
10 -2 -7 -31 -18 -64 -24 -32 -6 -59 -16 -59 -20 0 -14 -30 -10 -46 5 -8 8
-14 25 -14 38 -1 28 -22 58 -42 58 -9 0 -18 8 -21 18 -5 20 -44 32 -103 32
l-34 0 0 84 c0 62 4 89 15 100 8 8 15 22 15 31 0 9 9 25 19 36 26 28 33 69 15
96 -8 12 -14 34 -14 48 0 16 -6 25 -16 25 -8 0 -22 7 -30 15 -19 19 -44 19
-44 1z"/>
<path d="M54 5856 c25 -705 152 -1267 441 -1958 l29 -68 932 0 c884 0 933 1
928 18 -5 16 -5 16 6 0 10 -17 66 -18 940 -18 876 0 929 1 933 18 4 16 5 16 6
0 1 -17 82 -18 1536 -18 1667 0 1555 -4 1523 51 -10 17 -10 23 0 26 15 6 18
268 2 278 -5 3 -10 32 -10 64 0 31 -5 62 -12 69 -9 9 -9 12 0 12 7 0 12 12 12
26 0 14 5 35 11 46 12 23 -8 218 -23 218 -4 0 -8 12 -8 26 0 30 -21 54 -47 54
-11 0 -23 11 -29 28 -7 17 -28 36 -60 52 -27 14 -55 30 -61 37 -7 6 -29 17
-50 24 -50 16 -153 109 -153 139 0 5 -4 10 -10 10 -5 0 -10 14 -10 30 0 17 -4
30 -10 30 -5 0 -10 7 -10 16 0 20 -30 74 -52 95 -10 9 -18 21 -18 27 0 6 -8
25 -17 44 -31 61 -33 68 -33 88 0 11 -4 20 -9 20 -5 0 -16 16 -26 36 -16 34
-33 59 -62 89 -7 8 -13 20 -13 29 0 29 -23 66 -42 66 -41 0 -54 18 -68 91 -11
56 -11 74 -2 77 7 2 12 10 12 18 0 7 11 16 24 20 13 3 26 13 29 22 3 10 8 24
12 34 5 12 -2 19 -29 29 -20 7 -36 19 -36 26 0 7 -4 13 -10 13 -5 0 -10 16
-10 35 0 19 5 35 10 35 6 0 10 7 10 15 0 8 10 20 22 26 71 38 64 39 -306 39
l-355 0 -4 -157 -3 -158 -2 158 -2 157 -965 0 -964 0 -4 -132 -3 -133 -2 133
-2 132 -975 0 -974 0 -4 -117 -3 -118 -2 118 -2 117 -967 0 -966 0 7 -184z"/>
<path d="M8445 6003 c-10 -21 -26 -45 -37 -54 -20 -18 -24 -44 -8 -54 5 -3 29
5 52 18 37 20 43 29 46 60 l3 37 63 0 c62 0 63 0 58 -25 -2 -14 -8 -25 -13
-25 -5 0 -9 -6 -9 -13 0 -7 -10 -17 -22 -22 -13 -6 -24 -20 -26 -32 -3 -18 1
-23 20 -23 27 0 88 51 88 73 0 8 6 17 14 20 20 8 86 -3 86 -14 0 -5 9 -9 21
-9 18 0 84 -42 100 -63 3 -5 4 -20 1 -34 -5 -25 -4 -26 34 -19 21 4 41 8 44 9
10 1 66 -14 82 -24 23 -12 85 -12 93 1 10 17 40 11 55 -10 8 -11 19 -20 25
-20 13 0 85 -67 85 -79 0 -18 80 -61 115 -61 44 0 65 -19 65 -59 0 -16 5 -33
10 -36 6 -3 10 -26 10 -51 0 -24 -4 -44 -10 -44 -5 0 -10 -18 -10 -40 0 -41
-19 -81 -52 -111 -10 -9 -18 -21 -18 -28 0 -6 -5 -11 -11 -11 -15 0 -39 -26
-39 -44 0 -8 -4 -18 -10 -21 -5 -3 -10 -15 -10 -26 0 -10 -4 -19 -10 -19 -5 0
-12 -11 -16 -25 -3 -14 -13 -25 -21 -25 -9 0 -24 -9 -34 -21 -16 -18 -18 -34
-13 -121 2 -55 9 -108 14 -118 7 -12 6 -20 0 -22 -6 -2 -12 -23 -14 -48 -1
-25 -8 -55 -14 -67 -7 -13 -9 -39 -6 -66 5 -37 3 -47 -17 -68 -13 -13 -24 -30
-25 -36 -2 -29 -5 -33 -19 -33 -11 0 -15 -11 -15 -39 0 -32 -7 -46 -41 -80
-38 -38 -45 -41 -96 -41 -54 0 -91 -15 -124 -52 -9 -10 -28 -18 -43 -18 -20 0
-44 -17 -92 -64 -57 -58 -64 -69 -64 -105 0 -22 5 -43 10 -46 18 -11 11 -98
-10 -125 -11 -14 -20 -29 -20 -33 0 -5 -7 -15 -15 -23 -46 -46 -117 -44 1585
-44 l1600 0 0 1105 0 1105 -990 0 -990 0 -3 -257 -2 -258 -3 258 -2 257 -694
0 -694 0 -17 -37z"/>
<path d="M11850 4935 l0 -1105 511 0 c358 0 508 3 504 11 -4 5 1 19 11 30 9
10 14 22 10 27 -4 4 -15 -2 -25 -14 -14 -17 -19 -18 -29 -8 -7 7 -12 18 -12
24 0 5 -4 10 -9 10 -17 0 -44 162 -57 340 -5 68 -17 101 -47 135 -10 11 -20
31 -23 45 -7 39 -26 94 -33 100 -4 3 -14 21 -23 40 -9 19 -26 45 -37 57 -12
12 -21 36 -21 53 0 25 4 30 25 30 14 0 25 5 25 10 0 6 -11 10 -25 10 -22 0
-24 3 -19 33 17 98 26 137 35 142 5 4 9 26 9 51 0 24 5 44 10 44 6 0 10 14 10
31 0 24 9 39 35 62 31 26 35 35 35 77 0 27 -3 50 -7 52 -5 2 -15 23 -24 48
-12 38 -13 51 -3 76 11 27 10 37 -12 79 -13 27 -24 57 -24 67 0 10 -4 18 -10
18 -5 0 -10 9 -10 20 0 14 9 21 35 26 45 8 55 24 16 24 -17 0 -31 -4 -31 -10
0 -5 -4 -10 -10 -10 -5 0 -10 9 -10 20 0 11 5 20 11 20 7 0 9 10 7 25 -5 23
-2 25 33 25 22 0 39 5 39 10 0 6 9 10 20 10 11 0 20 5 20 10 0 6 -13 10 -29
10 -16 0 -31 4 -33 10 -2 6 -8 6 -18 0 -13 -8 -12 -10 3 -10 9 0 17 -4 17 -10
0 -14 -37 -12 -43 3 -4 10 -6 10 -6 0 -1 -7 -10 -13 -21 -13 -21 0 -28 -16 -9
-22 6 -2 9 -13 7 -23 -4 -18 -6 -17 -16 8 -6 15 -16 27 -22 27 -5 0 -10 6 -10
13 0 7 -9 19 -20 27 -24 17 -26 38 -5 46 8 4 15 16 14 28 0 14 -2 16 -6 6 -10
-26 -43 -41 -43 -20 0 10 -8 22 -37 55 -7 7 -13 16 -13 20 0 3 -9 15 -19 26
-10 11 -21 35 -24 52 -6 41 3 107 14 107 5 0 9 5 9 10 0 6 -105 10 -295 10
l-295 0 0 -1105z"/>
<path d="M14640 6018 c-11 -12 -20 -25 -20 -29 0 -4 -17 -24 -37 -43 -38 -36
-63 -46 -63 -25 0 6 -7 18 -16 27 -15 15 -16 14 -9 -8 4 -14 12 -26 16 -28 22
-9 -4 -78 -33 -87 -10 -4 -18 -13 -18 -22 0 -9 -9 -24 -21 -34 -12 -10 -23
-35 -26 -58 -5 -35 -9 -41 -29 -41 -33 0 -30 -13 6 -27 35 -13 41 -43 9 -43
-46 0 -64 -61 -29 -98 22 -23 26 -47 10 -57 -5 -3 -10 -26 -10 -50 0 -24 5
-47 10 -50 6 -3 10 -22 10 -41 0 -19 5 -34 10 -34 6 0 10 -9 10 -19 0 -11 5
-23 10 -26 15 -9 12 -25 -5 -25 -8 0 -15 -4 -15 -10 0 -5 7 -10 15 -10 8 0 15
5 15 10 0 15 19 12 36 -5 9 -8 11 -15 5 -15 -7 0 -11 -46 -11 -137 0 -149 4
-134 -60 -210 -5 -7 -10 -19 -10 -28 0 -26 -45 -63 -99 -80 -31 -11 -56 -27
-67 -43 -10 -15 -37 -44 -61 -66 -24 -21 -43 -47 -43 -57 0 -14 -7 -19 -28
-19 -47 0 -81 -57 -52 -86 6 -6 13 -34 17 -62 3 -29 10 -52 16 -52 5 0 6 -13
2 -32 -3 -18 -9 -53 -12 -78 -6 -47 -21 -65 -65 -74 -71 -14 -118 -75 -118
-153 0 -40 -35 -127 -53 -131 -8 -2 -18 -10 -21 -18 -5 -12 239 -14 1864 -14
l1869 0 11 43 c6 23 13 47 16 52 6 14 -6 -63 -13 -81 -4 -12 100 -14 751 -14
419 0 756 4 756 9 0 4 -9 20 -20 33 -10 14 -17 27 -15 30 3 2 0 20 -5 38 -7
25 -6 38 4 49 24 29 25 51 5 105 -20 50 -20 57 -6 85 8 17 18 45 22 63 14 69
15 72 30 52 11 -16 14 -15 29 14 9 17 36 43 61 58 25 14 45 29 45 33 0 13 70
41 105 41 18 0 36 4 40 9 7 12 113 61 132 61 22 0 93 39 99 55 3 7 12 11 20 8
8 -3 17 5 23 20 6 14 24 36 40 48 24 17 29 28 25 46 -5 17 2 30 27 54 l34 32
9 -27 c6 -14 13 -26 18 -26 13 0 28 37 25 62 -2 19 3 23 23 23 30 0 51 12 49
28 -3 25 1 47 9 45 11 -4 48 25 55 44 5 14 44 31 92 39 6 1 15 9 21 17 14 20
47 2 70 -38 13 -21 24 -28 38 -25 12 2 38 7 59 10 32 5 36 9 28 24 -7 13 -5
20 10 29 10 7 19 18 19 26 0 8 7 17 16 20 9 3 14 11 12 18 -5 13 43 58 61 58
6 0 11 4 11 9 0 5 15 7 34 4 43 -6 100 22 92 43 -3 9 -6 18 -6 20 0 2 -8 4
-17 4 -15 0 -16 2 -3 10 21 14 30 12 30 -6 0 -8 4 -13 9 -10 5 3 14 -1 21 -9
7 -8 20 -15 29 -15 9 0 21 -4 26 -9 9 -9 52 -16 135 -24 17 -1 24 2 22 12 -3
12 0 12 13 1 14 -12 14 -15 0 -30 -8 -9 -15 -21 -15 -27 0 -6 -13 -16 -30 -22
-21 -7 -30 -17 -30 -32 0 -11 -11 -30 -25 -41 -14 -11 -25 -27 -25 -37 0 -20
50 -71 68 -71 15 0 32 -13 69 -52 13 -14 36 -29 49 -32 14 -4 24 -14 24 -24 0
-22 48 -41 84 -35 15 3 35 17 45 32 41 58 89 159 100 208 6 28 21 71 34 95 13
23 22 49 20 56 -3 6 -1 12 4 12 5 0 19 20 31 44 33 64 52 67 53 8 1 -26 1 -52
0 -59 -1 -6 2 -14 7 -17 5 -3 5 -27 1 -53 -10 -63 -10 -75 0 -92 7 -10 13 -11
30 -2 15 9 21 9 21 0 0 -6 9 -18 20 -27 19 -16 20 -22 10 -71 -6 -30 -7 -76
-4 -101 4 -30 2 -56 -6 -71 -8 -14 -9 -24 -3 -26 6 -2 8 -15 5 -29 -3 -17 2
-30 18 -44 13 -11 27 -20 32 -20 4 0 8 -4 8 -10 0 -13 32 -45 55 -54 13 -5 15
-10 8 -17 -8 -8 -7 -20 2 -41 8 -20 10 -43 4 -67 -10 -43 6 -66 20 -30 9 23
10 23 10 3 1 -12 8 -25 17 -28 12 -5 14 -15 10 -44 -5 -29 0 -50 23 -97 16
-33 27 -63 24 -68 -3 -4 3 -17 12 -27 19 -21 16 -37 -21 -114 -13 -28 -22 -57
-19 -66 3 -8 1 -30 -4 -48 l-10 -32 838 0 838 0 61 139 c272 614 413 1225 439
1898 l6 173 -991 0 -991 0 -4 -117 -3 -118 -2 118 -2 117 -730 0 c-693 0 -730
-1 -730 -18 0 -10 7 -28 17 -41 12 -18 13 -22 2 -17 -8 3 -22 9 -31 12 -20 7
-23 20 -8 29 6 3 10 13 10 21 0 12 -37 14 -235 14 l-235 0 0 -34 c0 -51 16
-86 40 -86 11 0 20 7 20 15 0 8 9 15 19 15 11 0 26 7 35 15 20 20 76 20 76 -1
0 -8 -5 -12 -11 -8 -6 3 -23 -5 -37 -19 -15 -13 -37 -30 -49 -36 -30 -15 -28
-39 6 -79 18 -21 27 -41 24 -55 -3 -14 2 -29 11 -36 23 -19 20 -31 -8 -31 -13
0 -26 -7 -30 -15 -3 -8 -12 -15 -21 -15 -13 0 -15 7 -10 34 6 28 4 34 -15 39
-20 5 -21 10 -15 46 5 33 4 42 -10 47 -9 4 -18 5 -20 2 -6 -6 -13 -105 -14
-200 -1 -54 -5 -88 -11 -88 -6 0 -9 12 -8 28 3 23 -1 27 -24 30 -32 4 -32 4
-12 61 12 35 12 50 3 78 -9 30 -14 34 -35 29 -20 -5 -24 -3 -24 17 0 13 7 32
15 43 8 10 15 37 15 59 0 29 6 44 20 53 15 9 20 23 20 52 l0 40 -75 0 -75 0 0
-39 c0 -34 -5 -44 -35 -67 -26 -19 -35 -34 -35 -55 0 -46 -29 -106 -65 -133
-43 -33 -51 -33 -58 3 -5 24 -12 30 -44 35 -49 8 -61 8 -100 0 -26 -5 -33 -3
-33 9 0 23 -10 26 -58 17 -40 -7 -42 -6 -42 16 0 13 -4 24 -10 24 -5 0 -10 18
-10 41 0 29 -8 51 -27 76 -16 20 -27 45 -25 55 3 17 -8 18 -182 18 -178 0
-186 -1 -196 -21 -16 -29 -4 -69 20 -69 12 0 20 -7 20 -17 0 -24 50 -93 67
-93 8 0 25 -12 37 -27 24 -28 24 -28 5 -55 -16 -21 -19 -41 -17 -89 l3 -61
-40 -3 c-36 -2 -43 2 -88 51 -27 30 -54 54 -61 54 -24 0 -127 164 -151 240 -4
14 -19 40 -33 58 l-24 32 -279 0 -278 0 -4 -157 -3 -158 -2 158 -2 157 -1010
0 -1010 0 -3 -182 -2 -183 -3 183 -2 182 -550 0 -549 0 -21 -22z m4256 -454
c12 -2 24 -13 27 -23 3 -14 13 -19 35 -19 17 1 45 -5 62 -12 28 -12 33 -11 55
10 15 14 25 18 25 11 0 -8 8 -11 20 -8 10 3 24 -1 31 -9 6 -8 20 -14 30 -14
12 0 23 -10 29 -25 8 -22 16 -25 55 -25 36 0 45 -3 45 -17 0 -40 -13 -44 -93
-34 -43 5 -85 7 -95 4 -10 -2 -43 7 -73 21 -32 15 -82 27 -124 31 -119 10
-125 11 -138 29 -7 9 -22 15 -36 14 -13 -2 -26 3 -28 10 -3 6 2 12 10 12 8 0
20 13 25 30 10 28 12 29 64 24 29 -3 63 -7 74 -10z m-3847 -516 c8 -12 16 -45
18 -73 2 -27 7 -74 10 -102 5 -49 3 -53 -16 -53 -17 0 -21 -6 -21 -35 0 -19
-4 -35 -10 -35 -5 0 -10 -9 -10 -19 0 -11 -4 -22 -9 -25 -5 -3 -11 -34 -13
-68 -3 -35 -10 -64 -16 -66 -7 -2 -12 -12 -12 -22 0 -10 -4 -22 -10 -25 -5 -3
-10 -13 -10 -21 0 -9 -7 -22 -15 -30 -8 -9 -18 -27 -21 -42 -3 -15 -12 -42
-20 -60 -8 -18 -14 -46 -14 -62 0 -17 -3 -30 -8 -30 -9 0 -32 -72 -32 -102 -1
-33 -81 -80 -129 -76 -47 4 -81 52 -81 114 0 24 -3 44 -8 44 -4 0 -12 15 -18
34 -11 35 -5 56 23 84 19 20 73 131 73 151 0 10 -11 39 -24 64 -22 45 -23 49
-8 92 8 25 18 45 23 45 5 0 9 5 9 11 0 15 26 39 42 39 7 0 24 9 38 20 14 11
31 20 39 20 19 0 61 40 61 57 0 7 9 13 20 13 12 0 30 16 47 43 14 23 40 55 57
71 20 19 26 31 19 33 -17 6 -17 33 0 33 7 0 18 -10 26 -22z"/>
<path d="M601 3678 c347 -694 866 -1332 1544 -1899 l143 -119 798 0 798 0
-170 173 c-313 317 -537 590 -760 927 -88 132 -143 220 -132 210 3 -3 61 -88
129 -190 248 -371 509 -688 831 -1008 l113 -112 777 2 777 3 -76 95 c-211 264
-484 665 -579 853 -31 61 -4 20 79 -119 147 -246 318 -492 506 -726 l86 -108
786 0 787 0 -109 182 c-97 161 -339 623 -339 645 0 4 58 -104 128 -242 70
-137 173 -324 228 -415 l99 -165 814 -3 c721 -2 812 0 807 13 -15 38 -15 47 0
18 l18 -33 777 0 c613 0 778 3 782 13 4 9 6 9 6 0 1 -10 167 -13 796 -13 l795
0 0 1070 0 1070 -944 0 -945 0 -4 -42 -4 -43 -1 43 -2 42 -660 0 -660 0 0 -26
c0 -17 -15 -40 -45 -70 -30 -29 -45 -52 -45 -69 0 -24 -5 -33 -37 -70 -7 -7
-13 -21 -13 -30 0 -20 -63 -79 -68 -65 -5 13 -45 13 -59 -1 -7 -7 -20 -4 -44
10 -19 12 -42 21 -51 21 -9 0 -23 6 -30 13 -7 7 -22 16 -33 19 -18 4 -20 1
-17 -37 4 -39 7 -44 45 -61 30 -14 43 -26 45 -43 4 -24 29 -70 44 -82 4 -3 -3
-28 -17 -56 -22 -43 -31 -52 -61 -57 -34 -7 -35 -8 -29 -44 l5 -37 -10 33
c-10 31 -32 42 -45 22 -8 -14 -58 -13 -72 1 -14 14 -43 -10 -43 -34 0 -9 -6
-17 -12 -20 -10 -3 -10 -9 0 -26 6 -11 12 -32 12 -46 0 -23 -4 -25 -43 -25
-24 0 -48 5 -54 11 -6 6 -21 9 -34 7 -19 -2 -25 -10 -27 -36 -2 -22 2 -34 12
-38 9 -3 16 -16 16 -29 0 -14 7 -25 20 -28 22 -6 26 -39 10 -82 -7 -18 -7 -33
1 -48 9 -16 9 -22 0 -25 -6 -2 -11 -10 -11 -18 0 -8 -5 -14 -10 -14 -20 0 -60
-49 -60 -72 1 -23 21 -58 34 -58 4 0 16 -8 27 -19 11 -10 34 -21 50 -25 23 -4
29 -11 29 -31 0 -14 -5 -25 -10 -25 -26 0 -60 -50 -60 -87 0 -21 -7 -47 -15
-57 -19 -26 -19 -80 0 -100 19 -19 19 -26 0 -26 -8 0 -15 5 -15 10 0 6 -9 10
-20 10 -11 0 -20 -4 -20 -10 0 -5 -16 -10 -35 -10 -42 0 -85 34 -85 66 0 12
-6 24 -13 27 -9 3 -12 -5 -9 -30 3 -24 11 -37 23 -40 11 -3 19 -9 19 -13 0
-18 59 -29 94 -18 27 9 39 8 51 -2 9 -7 12 -16 7 -19 -4 -3 -16 -17 -25 -31
-13 -19 -17 -21 -17 -7 0 10 -8 17 -20 17 -11 0 -20 5 -20 10 0 6 -20 10 -45
10 -28 0 -45 -4 -45 -12 0 -16 -29 23 -30 40 0 16 -45 62 -60 62 -5 0 -10 5
-10 10 0 6 -9 20 -20 32 -21 23 -26 48 -11 63 4 6 11 23 15 39 6 26 5 27 -9
13 -8 -9 -15 -21 -15 -27 0 -6 -6 -10 -12 -8 -16 5 -23 68 -9 68 24 0 9 32
-19 41 l-30 11 0 89 c0 53 5 97 12 109 10 16 9 22 -12 40 -22 19 -24 30 -25
102 -2 73 -4 83 -23 91 -12 6 -22 14 -22 19 0 4 -16 8 -35 8 -28 0 -35 4 -35
19 0 11 -4 23 -10 26 -5 3 -10 44 -10 91 0 58 -5 95 -16 115 -13 26 -14 44 -5
117 6 48 8 104 4 125 -3 22 0 55 7 78 12 35 11 48 -4 97 -10 31 -23 67 -28 79
-6 12 -8 33 -6 47 l5 26 -588 0 c-551 0 -588 -1 -592 -17 -4 -17 -5 -17 -6 0
-1 16 -52 17 -926 17 -509 0 -925 -4 -925 -8 0 -5 13 -48 30 -97 16 -49 28
-90 26 -92 -2 -3 -19 41 -37 96 l-33 101 -933 0 c-883 0 -932 -1 -927 -17 5
-17 5 -17 -6 0 -10 16 -66 17 -941 17 l-929 0 61 -122z"/>
<path d="M11850 2730 l0 -1070 785 0 785 0 6 28 c3 15 10 41 15 57 8 26 8 25
3 -10 -3 -22 -7 -48 -10 -57 -5 -17 77 -18 1593 -18 l1598 0 28 45 c16 25 31
45 34 45 5 0 -3 -14 -29 -52 -10 -14 -18 -29 -18 -32 0 -3 353 -6 785 -6 l784
0 79 98 c197 244 367 487 524 752 114 192 126 210 97 151 -92 -193 -412 -664
-627 -923 l-64 -78 1564 0 1565 0 124 102 c218 178 349 297 559 507 449 449
788 902 1059 1414 l63 117 -844 -2 -843 -3 -15 -30 c-8 -16 -27 -46 -43 -66
-15 -20 -27 -40 -27 -45 0 -5 -16 -26 -35 -48 -19 -21 -35 -41 -35 -45 0 -4
-15 -15 -32 -26 -53 -31 -158 -129 -158 -147 0 -10 -10 -23 -22 -29 -27 -14
-43 -34 -84 -109 -257 -464 -542 -861 -893 -1244 -161 -175 -328 -342 -336
-334 -3 3 15 23 41 44 26 21 119 115 207 209 279 297 496 569 692 865 92 139
235 376 235 390 0 3 -27 5 -59 4 -42 0 -74 -8 -110 -26 -51 -25 -51 -25 -74
-6 -14 13 -21 28 -19 44 3 18 0 23 -12 18 -9 -3 -16 -12 -16 -19 0 -7 -10 -15
-22 -18 -13 -3 -33 -8 -44 -12 -15 -5 -29 1 -49 19 -15 14 -36 26 -46 26 -11
0 -19 4 -19 9 0 5 -9 13 -20 16 -11 3 -20 14 -20 24 0 9 -5 22 -12 29 -9 9 -9
15 0 24 13 13 16 66 6 92 -3 9 -17 16 -30 16 -23 0 -24 1 -9 23 10 16 13 34 9
57 l-7 33 -18 -24 c-14 -18 -19 -20 -19 -8 0 9 9 24 20 34 11 10 20 26 20 36
0 9 5 19 11 21 6 2 10 13 7 23 -3 18 -7 16 -33 -14 -17 -18 -46 -41 -65 -50
-19 -9 -41 -28 -48 -44 -21 -43 -44 -35 -38 13 3 22 1 42 -4 45 -5 3 -6 13 -3
21 4 10 -2 17 -15 21 -18 4 -20 9 -11 25 13 24 -9 43 -61 53 -19 4 -48 15 -65
24 -41 25 -149 14 -225 -23 -30 -14 -72 -26 -93 -26 -51 0 -147 -50 -183 -95
-31 -38 -29 -37 -168 -50 -73 -6 -82 -10 -113 -41 -18 -19 -33 -29 -33 -23 0
6 -14 -3 -31 -20 -25 -25 -39 -31 -75 -31 -50 0 -124 33 -124 55 0 8 9 19 19
25 13 6 24 32 34 76 15 63 15 68 -5 103 -13 23 -21 55 -21 89 l0 52 -763 0
-762 0 -22 -90 c-12 -50 -24 -89 -27 -87 -2 3 5 41 16 85 12 44 21 83 21 86 0
3 -434 6 -964 6 -762 0 -965 -3 -969 -12 -4 -10 -6 -10 -6 0 -1 9 -189 12
-905 12 l-904 0 -28 -47 c-22 -38 -30 -70 -40 -158 l-13 -110 6 99 c5 93 4 98
-12 83 -9 -9 -21 -17 -26 -17 -5 0 -42 -34 -82 -75 -45 -46 -82 -75 -95 -75
-11 0 -23 -4 -26 -9 -7 -11 -79 -21 -185 -26 -46 -3 -107 -11 -136 -20 -29 -8
-63 -15 -74 -15 -12 0 -21 -4 -21 -10 0 -16 -19 -12 -42 10 -12 11 -30 20 -40
20 -11 0 -15 5 -12 14 3 7 -2 20 -10 29 -21 21 -20 39 4 60 11 9 20 25 20 35
0 18 -54 112 -71 122 -4 3 -9 23 -11 45 l-3 40 -517 3 -518 2 0 -1070z m8799
242 c8 -8 33 -12 62 -11 27 2 51 1 53 -2 8 -8 -32 -89 -44 -89 -6 0 -15 -11
-20 -25 -5 -14 -16 -25 -24 -25 -8 0 -19 -6 -23 -14 -4 -7 -18 -16 -30 -20
-27 -8 -45 20 -44 67 0 18 1 49 1 70 1 21 5 50 11 64 10 26 15 25 58 -15z"/>
<path d="M2495 1504 c284 -211 634 -437 960 -619 279 -156 870 -444 883 -430
3 3 -1 5 -8 5 -9 0 -10 3 -4 9 5 6 80 6 199 0 170 -9 474 -5 516 7 10 3 19 19
22 41 9 51 32 73 79 73 30 0 38 -4 38 -19 0 -14 10 -20 40 -25 46 -7 148 3
156 15 3 5 1 9 -3 9 -5 0 -18 7 -29 15 -16 14 -14 13 15 0 41 -20 75 -13 97
21 43 65 149 94 334 92 126 -2 255 20 300 51 14 10 31 16 37 14 7 -3 16 2 19
11 12 30 135 11 226 -35 68 -35 61 -20 -24 48 -227 182 -577 515 -794 756
l-79 88 -770 -3 -770 -3 124 -110 c327 -290 739 -593 1116 -820 72 -43 135
-83 140 -88 33 -32 -223 125 -435 266 -300 200 -639 463 -884 686 l-78 71
-796 0 -796 0 169 -126z"/>
<path d="M5500 1625 c0 -14 255 -288 392 -421 156 -152 400 -366 510 -449 l61
-46 346 3 346 2 45 -26 c70 -40 119 -53 136 -36 23 23 -2 45 -106 97 -150 74
-148 101 10 101 79 0 105 -4 155 -25 61 -25 106 -27 252 -9 l43 5 -103 117
c-175 198 -333 403 -475 615 l-53 77 -779 0 c-429 0 -780 -2 -780 -5z"/>
<path d="M7129 1542 c131 -195 344 -467 519 -662 l49 -55 239 -2 c131 -2 273
-2 315 -2 54 0 101 -7 165 -26 49 -15 100 -30 114 -34 32 -9 60 -3 60 13 0 18
-82 60 -162 84 -47 14 -82 32 -114 61 -26 23 -51 41 -56 41 -5 0 -8 12 -6 27
4 32 31 42 56 20 31 -26 50 -26 79 -1 21 18 40 24 77 24 42 0 52 -4 80 -35 18
-19 37 -35 43 -35 24 0 30 66 12 119 -10 27 -15 31 -49 31 -63 0 -90 15 -90
50 0 36 0 36 50 10 53 -27 76 -26 84 5 5 20 -1 35 -24 63 -36 43 -38 59 -8 64
14 2 24 12 28 28 8 35 37 38 50 5 9 -24 13 -25 47 -19 46 8 113 41 113 55 0 5
-9 27 -20 49 -11 22 -20 43 -20 47 1 4 10 -9 21 -29 11 -21 20 -38 22 -38 1 0
19 6 41 14 28 10 49 11 77 3 22 -5 39 -13 39 -16 0 -4 -13 -20 -29 -35 -18
-18 -34 -47 -41 -77 l-12 -50 70 -127 c38 -70 80 -145 92 -167 12 -22 15 -31
6 -21 -24 29 -19 12 14 -54 17 -33 35 -60 41 -60 6 0 -1 20 -15 45 -15 25 -25
45 -23 45 4 0 32 -43 117 -178 37 -60 38 -60 164 -92 50 -12 101 -31 115 -41
37 -27 113 -39 185 -28 103 15 165 11 243 -16 41 -14 86 -26 101 -25 15 0 97
2 182 3 127 2 167 7 224 25 37 12 79 22 91 22 55 0 56 4 14 128 -22 64 -38
120 -36 125 1 4 20 -45 41 -110 21 -65 42 -122 46 -126 11 -13 79 22 97 49 9
14 35 30 63 38 65 19 123 51 137 74 6 11 24 23 40 26 15 4 40 19 55 33 26 24
31 26 98 19 64 -6 70 -5 70 13 0 24 19 31 81 31 44 0 51 3 59 25 5 14 18 28
27 32 10 3 26 13 37 22 15 13 51 17 198 19 l181 4 33 33 c49 49 73 54 98 19
l21 -29 6 75 5 75 2 -76 c2 -62 5 -78 19 -83 22 -9 583 5 583 14 0 4 14 13 31
20 28 12 36 10 93 -18 34 -17 82 -36 107 -41 54 -12 297 3 384 24 33 8 83 17
112 21 55 7 74 21 91 69 l11 30 -5 -35 c-5 -35 -5 -35 42 -49 40 -12 48 -12
55 0 21 35 28 40 60 45 28 5 52 -2 118 -35 77 -38 86 -40 123 -31 26 7 42 19
48 34 7 19 18 24 61 29 30 4 68 17 88 30 48 33 222 72 250 58 51 -28 151 6
151 51 0 28 29 36 156 44 l119 7 48 -34 c63 -45 108 -69 128 -69 11 0 51 72
125 224 60 123 111 223 113 221 2 -2 -45 -102 -103 -221 -76 -155 -103 -221
-96 -228 7 -7 78 -11 193 -12 295 -1 280 0 273 -28 -5 -19 -1 -26 14 -31 12
-4 27 -1 35 5 8 6 26 10 42 8 23 -2 29 -8 31 -33 2 -16 11 -36 20 -43 21 -16
61 -15 81 1 9 7 48 24 86 37 39 13 85 31 103 41 18 9 41 15 51 12 22 -6 69 17
94 45 15 16 16 25 8 41 -15 28 -15 29 24 45 19 8 35 19 35 25 0 15 40 0 51
-20 5 -11 19 -19 30 -19 11 0 24 -11 31 -25 15 -33 34 -32 53 5 18 35 55 44
130 32 41 -6 52 -12 63 -35 22 -46 46 -34 117 55 68 85 265 363 265 373 0 3
-364 5 -809 5 -638 0 -810 -3 -814 -12 -4 -10 -6 -10 -6 0 -1 9 -163 12 -775
12 l-773 0 -11 -42 -11 -43 5 43 6 42 -1577 0 -1577 0 6 -42 5 -43 -11 43 -11
42 -774 0 -774 0 5 -22 6 -23 -11 23 -12 22 -809 0 -809 0 60 -88z"/>
<path d="M16560 1547 c-30 -45 -102 -145 -160 -223 l-106 -141 96 5 c97 4 140
19 140 47 0 8 6 15 14 15 7 0 19 6 25 14 21 25 72 25 128 -1 36 -17 66 -23 95
-21 39 3 43 6 48 33 l5 30 17 -24 c17 -24 20 -24 68 4 43 25 67 19 90 -23 12
-22 35 -46 50 -55 38 -23 116 -22 160 1 19 11 48 22 65 26 16 4 33 12 36 18
10 16 86 29 112 19 13 -5 36 -24 52 -43 38 -45 56 -50 160 -42 85 7 91 9 119
40 16 19 37 34 47 34 16 0 202 186 307 308 l54 62 -784 0 -783 -1 -55 -82z"/>
<path d="M18088 1513 c-59 -65 -138 -151 -175 -192 -65 -70 -67 -74 -48 -87
15 -11 45 -14 110 -13 76 2 97 -1 134 -20 50 -26 85 -22 102 12 18 33 25 35
94 29 102 -8 191 6 222 34 14 13 37 24 50 24 21 0 23 -3 17 -22 -23 -70 -10
-76 161 -77 158 -1 188 -10 208 -60 15 -36 19 -39 64 -44 42 -4 54 0 100 30
98 65 355 276 566 465 l42 37 -770 1 -770 0 -107 -117z"/>
<path d="M19680 1569 c-98 -92 -357 -307 -475 -395 -57 -43 -103 -80 -101 -81
1 -2 33 -5 70 -7 58 -4 73 -9 98 -33 26 -25 37 -28 96 -28 l67 0 3 -35 c5 -48
18 -63 44 -49 34 18 119 15 176 -7 28 -12 55 -24 58 -27 28 -28 -132 -90 -346
-133 -121 -24 -197 -46 -286 -82 -66 -27 -138 -52 -159 -56 -50 -10 -84 -27
-114 -60 -34 -36 -22 -60 27 -52 131 21 197 24 215 8 13 -11 47 -17 130 -20
76 -3 120 -9 136 -19 15 -10 35 -13 54 -9 43 9 555 263 757 376 411 230 875
532 1140 742 l35 28 -780 -1 -780 0 -65 -60z"/>
</g>
</svg>
